<svg width="363" height="89" viewBox="0 0 363 89" fill="none" xmlns="http://www.w3.org/2000/svg">
<path d="M46.2588 44.0391C49.4405 44.0391 53.0264 46.957 53.0264 51.3691C53.0264 55.7109 49.7393 60 44.1143 60H33.5147V31.6641H41.2491C46.1358 31.6641 49.4405 35.1797 49.4405 38.9414C49.4405 42 47.3135 44.0391 46.2588 44.0391ZM41.5127 35.9883H37.9444V43.0547L41.46 43.0371C43.6573 43.0547 45.2745 41.543 45.2745 39.5215C45.2745 37.5 43.5166 35.9883 41.5127 35.9883ZM43.71 55.6582C46.2588 55.6582 48.6846 53.8125 48.6846 51.0703C48.6846 48.9258 46.8565 46.957 43.6397 46.957L37.9444 46.9746V55.6582H43.71ZM75.9687 60.457C67.9179 60.457 61.3437 53.8828 61.3437 45.8672C61.3437 37.7812 67.9179 31.1719 75.9863 31.1719C84.037 31.1719 90.6464 37.7812 90.6464 45.8672C90.6464 53.8828 84.037 60.457 75.9687 60.457ZM75.9687 55.957C81.5585 55.957 86.1464 51.4043 86.1464 45.832C86.1464 40.2246 81.5585 35.6543 75.9687 35.6543C70.3788 35.6543 65.8261 40.2246 65.8261 45.832C65.8261 51.4043 70.3788 55.957 75.9687 55.957ZM114.116 60.457C106.065 60.457 99.491 53.8828 99.491 45.8672C99.491 37.7812 106.065 31.1719 114.134 31.1719C122.184 31.1719 128.794 37.7812 128.794 45.8672C128.794 53.8828 122.184 60.457 114.116 60.457ZM114.116 55.957C119.706 55.957 124.294 51.4043 124.294 45.832C124.294 40.2246 119.706 35.6543 114.116 35.6543C108.526 35.6543 103.973 40.2246 103.973 45.832C103.973 51.4043 108.526 55.957 114.116 55.957ZM159.33 60H153.898L143.422 46.2891V60H138.992V31.6641H143.422V45.2344L153.16 31.6641H158.328L148.273 45.5684L159.33 60ZM203.439 31.5938H207.904V60.4922H207.693L189.57 41.5605V60.0352H185.123V31.1719H185.351L203.439 50.0684V31.5938ZM232.744 60.457C224.694 60.457 218.119 53.8828 218.119 45.8672C218.119 37.7812 224.694 31.1719 232.762 31.1719C240.813 31.1719 247.422 37.7812 247.422 45.8672C247.422 53.8828 240.813 60.457 232.744 60.457ZM232.744 55.957C238.334 55.957 242.922 51.4043 242.922 45.832C242.922 40.2246 238.334 35.6543 232.744 35.6543C227.155 35.6543 222.602 40.2246 222.602 45.832C222.602 51.4043 227.155 55.957 232.744 55.957ZM262.384 60.2637L253.366 31.6641H258.165L263.421 49.1543L269.907 32.8594H270.083L276.57 49.1367L281.808 31.6641H286.607L277.607 60.2637H277.202L269.943 43.1777L262.788 60.2637H262.384ZM312.681 56.5547V51.8965L323.192 45.5156L312.681 39.1523L312.54 34.4941L329.485 45.3398V45.6914L312.681 56.5547Z" fill="white"/>
<rect x="2.5" y="2" width="358" height="85" rx="7" stroke="white" stroke-width="4"/>
</svg>
