<svg width="643" height="118" viewBox="0 0 643 118" fill="none" xmlns="http://www.w3.org/2000/svg">
<path d="M26.885 21.0547H10.3147V30.7344H24.6116V36.6406H10.3147V47.0938H26.885V53H4.38501V15.2188H26.885V21.0547ZM100.059 53L112.199 33.3828L100.879 15.2188H107.723L115.668 28.1562L123.567 15.2188H130.41L119.09 33.3594L131.231 53H124.457L115.645 38.75L106.856 53H100.059ZM205.529 53V15.2188H218.162C225.475 15.2188 231.451 20.8203 231.451 27.6875C231.451 34.4141 225.475 39.8984 218.162 39.8984H211.459V53H205.529ZM218.162 34.0391C222.217 34.0625 225.522 31.1797 225.522 27.6406C225.522 24.0312 222.217 21.1016 218.162 21.1016H211.459V34.0156L218.162 34.0391ZM312.195 47.0938H329.047V53H306.266V15.2188H312.195V47.0938ZM419.963 53.6094C409.228 53.6094 400.463 44.8438 400.463 34.1562C400.463 23.375 409.228 14.5625 419.986 14.5625C430.721 14.5625 439.533 23.375 439.533 34.1562C439.533 44.8438 430.721 53.6094 419.963 53.6094ZM419.963 47.6094C427.416 47.6094 433.533 41.5391 433.533 34.1094C433.533 26.6328 427.416 20.5391 419.963 20.5391C412.51 20.5391 406.439 26.6328 406.439 34.1094C406.439 41.5391 412.51 47.6094 419.963 47.6094ZM543.105 53H535.816L525.644 38.375H521.004V53H515.074L515.051 15.2188H526.793C533.824 15.2188 539.59 20.6328 539.59 27.3594C539.59 32.2344 536.449 36.4766 532.113 37.8828L543.105 53ZM520.98 33.4531H526.933C530.496 33.4766 533.473 30.5938 533.473 27.2188C533.473 23.7031 530.449 21.1016 526.933 21.1016H520.98V33.4531ZM639.693 21.0547H623.123V30.7344H637.42V36.6406H623.123V47.0938H639.693V53H617.193V15.2188H639.693V21.0547Z" fill="white"/>
<path d="M147.067 80.6641V85.0762H139.473V109H135.008V85.0762H127.414V80.6641H147.067ZM186.037 80.6641H190.484V109H186.037V97.0293H173.767V109H169.337V80.6641H173.767V92.6172H186.037V80.6641ZM231.546 85.041H219.118V92.3008H229.841V96.7305H219.118V104.57H231.546V109H214.671V80.6641H231.546V85.041ZM296.917 93.0391C300.099 93.0391 303.685 95.957 303.685 100.369C303.685 104.711 300.398 109 294.773 109H284.173V80.6641H291.908C296.794 80.6641 300.099 84.1797 300.099 87.9414C300.099 91 297.972 93.0391 296.917 93.0391ZM292.171 84.9883H288.603V92.0547L292.119 92.0371C294.316 92.0547 295.933 90.543 295.933 88.5215C295.933 86.5 294.175 84.9883 292.171 84.9883ZM294.369 104.658C296.917 104.658 299.343 102.812 299.343 100.07C299.343 97.9258 297.515 95.957 294.298 95.957L288.603 95.9746V104.658H294.369ZM342.831 85.041H330.403V92.3008H341.126V96.7305H330.403V104.57H342.831V109H325.956V80.6641H342.831V85.041ZM385.967 109L384.033 104.693H370.621L368.687 109H363.871L377.195 80.084H377.459L390.783 109H385.967ZM372.344 100.879H382.31L377.336 89.8047L372.344 100.879ZM420.454 109.527C414.425 109.527 409.749 104.764 409.749 98.2598V80.6641H414.214V98.2422C414.214 102.162 416.974 105.027 420.437 105.027C423.9 105.027 426.695 102.162 426.695 98.2422V80.6641H431.177V98.2598C431.177 104.764 426.484 109.527 420.454 109.527ZM472.819 80.6641V85.0762H465.225V109H460.76V85.0762H453.167V80.6641H472.819ZM502.174 109V96.8887L492.769 80.6641H497.779L504.371 91.9492L510.98 80.6641H515.99L506.586 96.8887V109H502.174Z" fill="#BBEB3F"/>
</svg>
