<svg width="390" height="89" viewBox="0 0 390 89" fill="none" xmlns="http://www.w3.org/2000/svg">
<path d="M41.7047 60.4746C37.0465 60.4746 33.5133 58.2949 31.8961 55.0254L35.4117 52.5117C36.6773 54.7266 39.0328 55.9922 41.7574 55.9922C44.9391 55.9922 47.3473 54.4629 47.3473 52.3008C47.3473 49.6816 43.6207 48.0996 40.316 46.6758C36.9937 45.1992 33.3023 43.4766 33.3023 39.0293C33.3023 34.3887 37.3277 31.1543 42.4254 31.1543C46.4684 31.1543 49.4918 33.1055 50.6519 36.2168L47.3473 38.502C46.4684 36.5859 44.5172 35.5137 42.4605 35.5137C39.859 35.5137 37.7848 37.1309 37.7848 39.1348C37.7848 41.3496 40.4039 42.1406 43.8492 43.6172C48.3316 45.5859 51.8121 47.748 51.8121 52.2129C51.8121 57.2402 47.4527 60.4746 41.7047 60.4746ZM78.4634 31.6641H82.9106V60H78.4634V48.0293H66.1938V60H61.7641V31.6641H66.1938V43.6172H78.4634V31.6641ZM107.769 60.457C99.7181 60.457 93.1439 53.8828 93.1439 45.8672C93.1439 37.7812 99.7181 31.1719 107.786 31.1719C115.837 31.1719 122.447 37.7812 122.447 45.8672C122.447 53.8828 115.837 60.457 107.769 60.457ZM107.769 55.957C113.359 55.957 117.947 51.4043 117.947 45.832C117.947 40.2246 113.359 35.6543 107.769 35.6543C102.179 35.6543 97.6263 40.2246 97.6263 45.832C97.6263 51.4043 102.179 55.957 107.769 55.957ZM137.408 60.2637L128.391 31.6641H133.19L138.446 49.1543L144.932 32.8594H145.108L151.594 49.1367L156.832 31.6641H161.631L152.631 60.2637H152.227L144.967 43.1777L137.813 60.2637H137.408ZM214.986 31.0488H215.32V60H210.873V44.2852L201.469 59.5254H201.434L192.012 44.2676V60H187.564V31.0488H187.898L201.451 51.6504L214.986 31.0488ZM240.179 60.457C232.128 60.457 225.554 53.8828 225.554 45.8672C225.554 37.7812 232.128 31.1719 240.196 31.1719C248.247 31.1719 254.856 37.7812 254.856 45.8672C254.856 53.8828 248.247 60.457 240.179 60.457ZM240.179 55.957C245.768 55.957 250.356 51.4043 250.356 45.832C250.356 40.2246 245.768 35.6543 240.179 35.6543C234.589 35.6543 230.036 40.2246 230.036 45.832C230.036 51.4043 234.589 55.957 240.179 55.957ZM286.095 60H280.629L273 49.0312H269.519V60H265.072L265.054 31.6641H273.861C279.135 31.6641 283.459 35.7246 283.459 40.7695C283.459 44.4258 281.103 47.6074 277.851 48.6621L286.095 60ZM269.502 45.3398H273.967C276.638 45.3574 278.871 43.1953 278.871 40.6641C278.871 38.0273 276.603 36.0762 273.967 36.0762H269.502V45.3398ZM312.096 36.041H299.669V43.3008H310.391V47.7305H299.669V55.5703H312.096V60H295.221V31.6641H312.096V36.041ZM339.664 56.5547V51.8965L350.176 45.5156L339.664 39.1523L339.524 34.4941L356.469 45.3398V45.6914L339.664 56.5547Z" fill="white"/>
<rect x="2.5" y="2" width="385" height="85" rx="7" stroke="white" stroke-width="4"/>
</svg>
