<svg width="43" height="43" viewBox="0 0 43 43" fill="none" xmlns="http://www.w3.org/2000/svg">
<path d="M2.59375 18.0625C2.13791 18.0625 1.70074 17.8814 1.37841 17.5591C1.05608 17.2368 0.875 16.7996 0.875 16.3438V2.5972C0.875 2.14136 1.05608 1.70419 1.37841 1.38186C1.70074 1.05953 2.13791 0.878448 2.59375 0.878448H16.3438C16.7996 0.878448 17.2368 1.05953 17.5591 1.38186C17.8814 1.70419 18.0625 2.14136 18.0625 2.5972V16.3438C18.0625 16.7996 17.8814 17.2368 17.5591 17.5591C17.2368 17.8814 16.7996 18.0625 16.3438 18.0625H2.59375ZM26.6563 18.0625C26.2004 18.0625 25.7632 17.8814 25.4409 17.5591C25.1186 17.2368 24.9375 16.7996 24.9375 16.3438V2.5972C24.9375 2.14136 25.1186 1.70419 25.4409 1.38186C25.7632 1.05953 26.2004 0.878448 26.6563 0.878448H40.4028C40.8587 0.878448 41.2958 1.05953 41.6182 1.38186C41.9405 1.70419 42.1216 2.14136 42.1216 2.5972V16.3438C42.1216 16.7996 41.9405 17.2368 41.6182 17.5591C41.2958 17.8814 40.8587 18.0625 40.4028 18.0625H26.6563ZM2.59375 42.125C2.13791 42.125 1.70074 41.9439 1.37841 41.6216C1.05608 41.2993 0.875 40.8621 0.875 40.4063V26.6563C0.875 26.2004 1.05608 25.7632 1.37841 25.4409C1.70074 25.1186 2.13791 24.9375 2.59375 24.9375H16.3438C16.7996 24.9375 17.2368 25.1186 17.5591 25.4409C17.8814 25.7632 18.0625 26.2004 18.0625 26.6563V40.4063C18.0625 40.8621 17.8814 41.2993 17.5591 41.6216C17.2368 41.9439 16.7996 42.125 16.3438 42.125H2.59375ZM26.6563 42.125C26.2004 42.125 25.7632 41.9439 25.4409 41.6216C25.1186 41.2993 24.9375 40.8621 24.9375 40.4063V26.6563C24.9375 26.2004 25.1186 25.7632 25.4409 25.4409C25.7632 25.1186 26.2004 24.9375 26.6563 24.9375H40.4028C40.8587 24.9375 41.2958 25.1186 41.6182 25.4409C41.9405 25.7632 42.1216 26.2004 42.1216 26.6563V40.4063C42.1216 40.8621 41.9405 41.2993 41.6182 41.6216C41.2958 41.9439 40.8587 42.125 40.4028 42.125H26.6563Z" fill="#9D9D9D"/>
</svg>
