<svg width="164" height="70" viewBox="0 0 164 70" fill="none" xmlns="http://www.w3.org/2000/svg">
<path d="M62 8.16748L82 21.1675L102 8.16748" stroke="black" stroke-width="2" stroke-linecap="round" stroke-linejoin="round"/>
<path d="M62 21.1675L82 33.1675L102 21.1675" stroke="black" stroke-width="2" stroke-linecap="round" stroke-linejoin="round"/>
<path d="M15.1104 57.3521C13.2988 57.3521 11.9248 56.5044 11.2959 55.2329L12.6631 54.2554C13.1553 55.1167 14.0713 55.6089 15.1309 55.6089C16.3682 55.6089 17.3047 55.0142 17.3047 54.1733C17.3047 53.1548 15.8555 52.5396 14.5703 51.9858C13.2783 51.4116 11.8428 50.7417 11.8428 49.0122C11.8428 47.2075 13.4082 45.9497 15.3906 45.9497C16.9629 45.9497 18.1387 46.7085 18.5898 47.9185L17.3047 48.8071C16.9629 48.062 16.2041 47.645 15.4043 47.645C14.3926 47.645 13.5859 48.2739 13.5859 49.0532C13.5859 49.9146 14.6045 50.2222 15.9443 50.7964C17.6875 51.562 19.041 52.4028 19.041 54.1392C19.041 56.0942 17.3457 57.3521 15.1104 57.3521ZM29.2197 57.3452C26.0957 57.3452 23.5049 54.7749 23.5049 51.6646C23.5049 48.561 26.0957 45.9565 29.1924 45.9565C30.6211 45.9771 31.9404 46.5854 33.0205 47.6382L32.0156 48.9985C31.2432 48.2261 30.2383 47.7134 29.1582 47.7134C27.1621 47.7134 25.2549 49.4634 25.2549 51.6714C25.2549 53.8931 27.1895 55.6089 29.165 55.6089C30.293 55.6089 31.2637 55.0483 32.0225 54.2964L33.0205 55.6909C32.0703 56.6274 30.8604 57.3452 29.2197 57.3452ZM46.0771 57.1675H43.9512L40.9844 52.9019H39.6309V57.1675H37.9014L37.8945 46.1479H41.3193C43.3701 46.1479 45.0518 47.7271 45.0518 49.689C45.0518 51.1108 44.1357 52.3481 42.8711 52.7583L46.0771 57.1675ZM39.624 51.4663H41.3604C42.3994 51.4731 43.2676 50.6323 43.2676 49.6479C43.2676 48.6226 42.3857 47.8638 41.3604 47.8638H39.624V51.4663ZM55.9072 57.3452C52.7764 57.3452 50.2197 54.7886 50.2197 51.6714C50.2197 48.5269 52.7764 45.9565 55.9141 45.9565C59.0449 45.9565 61.6152 48.5269 61.6152 51.6714C61.6152 54.7886 59.0449 57.3452 55.9072 57.3452ZM55.9072 55.5952C58.0811 55.5952 59.8652 53.8247 59.8652 51.6577C59.8652 49.4771 58.0811 47.6997 55.9072 47.6997C53.7334 47.6997 51.9629 49.4771 51.9629 51.6577C51.9629 53.8247 53.7334 55.5952 55.9072 55.5952ZM68.4307 55.4448H73.3457V57.1675H66.7012V46.1479H68.4307V55.4448ZM79.9561 55.4448H84.8711V57.1675H78.2266V46.1479H79.9561V55.4448ZM100.491 46.1479C103.991 46.1411 106.172 48.2603 106.172 51.6714C106.172 55.0552 103.991 57.1675 100.491 57.1675H97.3535V46.1479H100.491ZM100.505 55.4448C102.911 55.4448 104.422 53.9888 104.422 51.6646C104.422 49.3267 102.904 47.8638 100.484 47.8638H99.0762V55.4448H100.505ZM116.419 57.3452C113.288 57.3452 110.731 54.7886 110.731 51.6714C110.731 48.5269 113.288 45.9565 116.426 45.9565C119.557 45.9565 122.127 48.5269 122.127 51.6714C122.127 54.7886 119.557 57.3452 116.419 57.3452ZM116.419 55.5952C118.593 55.5952 120.377 53.8247 120.377 51.6577C120.377 49.4771 118.593 47.6997 116.419 47.6997C114.245 47.6997 112.475 49.4771 112.475 51.6577C112.475 53.8247 114.245 55.5952 116.419 55.5952ZM129.065 57.27L125.559 46.1479H127.425L129.469 52.9497L131.991 46.6128H132.06L134.582 52.9429L136.619 46.1479H138.485L134.985 57.27H134.828L132.005 50.6255L129.223 57.27H129.065ZM150.332 46.1206H152.068V57.3589H151.986L144.938 49.9966V57.1812H143.209V45.9565H143.298L150.332 53.3052V46.1206Z" fill="black"/>
</svg>
