<svg width="326" height="30" viewBox="0 0 326 30" fill="none" xmlns="http://www.w3.org/2000/svg">
<path d="M10.7047 29.4746C6.04648 29.4746 2.51328 27.2949 0.896088 24.0254L4.41171 21.5117C5.67734 23.7266 8.03281 24.9922 10.7574 24.9922C13.9391 24.9922 16.3473 23.4629 16.3473 21.3008C16.3473 18.6816 12.6207 17.0996 9.31601 15.6758C5.99374 14.1992 2.30234 12.4766 2.30234 8.0293C2.30234 3.38867 6.32773 0.154297 11.4254 0.154297C15.4684 0.154297 18.4918 2.10547 19.6519 5.2168L16.3473 7.50195C15.4684 5.58594 13.5172 4.51367 11.4605 4.51367C8.85898 4.51367 6.78476 6.13086 6.78476 8.13477C6.78476 10.3496 9.4039 11.1406 12.8492 12.6172C17.3316 14.5859 20.8121 16.748 20.8121 21.2129C20.8121 26.2402 16.4527 29.4746 10.7047 29.4746ZM47.4634 0.664062H51.9106V29H47.4634V17.0293H35.1938V29H30.7641V0.664062H35.1938V12.6172H47.4634V0.664062ZM76.7689 29.457C68.7181 29.457 62.1439 22.8828 62.1439 14.8672C62.1439 6.78125 68.7181 0.171875 76.7865 0.171875C84.8373 0.171875 91.4466 6.78125 91.4466 14.8672C91.4466 22.8828 84.8373 29.457 76.7689 29.457ZM76.7689 24.957C82.3587 24.957 86.9466 20.4043 86.9466 14.832C86.9466 9.22461 82.3587 4.6543 76.7689 4.6543C71.1791 4.6543 66.6263 9.22461 66.6263 14.832C66.6263 20.4043 71.1791 24.957 76.7689 24.957ZM106.408 29.2637L97.3909 0.664062H102.19L107.446 18.1543L113.932 1.85938H114.108L120.594 18.1367L125.832 0.664062H130.631L121.631 29.2637H121.227L113.967 12.1777L106.813 29.2637H106.408ZM183.986 0.0488281H184.32V29H179.873V13.2852L170.469 28.5254H170.434L161.012 13.2676V29H156.564V0.0488281H156.898L170.451 20.6504L183.986 0.0488281ZM209.179 29.457C201.128 29.457 194.554 22.8828 194.554 14.8672C194.554 6.78125 201.128 0.171875 209.196 0.171875C217.247 0.171875 223.856 6.78125 223.856 14.8672C223.856 22.8828 217.247 29.457 209.179 29.457ZM209.179 24.957C214.768 24.957 219.356 20.4043 219.356 14.832C219.356 9.22461 214.768 4.6543 209.179 4.6543C203.589 4.6543 199.036 9.22461 199.036 14.832C199.036 20.4043 203.589 24.957 209.179 24.957ZM255.095 29H249.629L242 18.0312H238.519V29H234.072L234.054 0.664062H242.861C248.135 0.664062 252.459 4.72461 252.459 9.76953C252.459 13.4258 250.103 16.6074 246.851 17.6621L255.095 29ZM238.502 14.3398H242.967C245.638 14.3574 247.871 12.1953 247.871 9.66406C247.871 7.02734 245.603 5.07617 242.967 5.07617H238.502V14.3398ZM281.096 5.04102H268.669V12.3008H279.391V16.7305H268.669V24.5703H281.096V29H264.221V0.664062H281.096V5.04102ZM308.664 25.5547V20.8965L319.176 14.5156L308.664 8.15234L308.524 3.49414L325.469 14.3398V14.6914L308.664 25.5547Z" fill="white"/>
</svg>
