<svg width="431" height="30" viewBox="0 0 431 30" fill="none" xmlns="http://www.w3.org/2000/svg">
<path d="M20.4688 0.664062V5.07617H12.875V29H8.41016V5.07617H0.816406V0.664062H20.4688ZM67.7188 0.664062H72.166V29H67.7188V17.0293H55.4492V29H51.0195V0.664062H55.4492V12.6172H67.7188V0.664062ZM124.408 29L122.475 24.6934H109.062L107.129 29H102.312L115.637 0.0839844H115.9L129.225 29H124.408ZM110.785 20.8789H120.752L115.777 9.80469L110.785 20.8789ZM177.688 0.59375H182.152V29.4922H181.941L163.818 10.5605V29.0352H159.371V0.171875H159.6L177.688 19.0684V0.59375ZM234.939 29H229.508L219.031 15.2891V29H214.602V0.664062H219.031V14.2344L228.77 0.664062H233.938L223.883 14.5684L234.939 29ZM309.576 29V16.8887L300.172 0.664062H305.182L311.773 11.9492L318.383 0.664062H323.393L313.988 16.8887V29H309.576ZM363.646 29.457C355.596 29.457 349.021 22.8828 349.021 14.8672C349.021 6.78125 355.596 0.171875 363.664 0.171875C371.715 0.171875 378.324 6.78125 378.324 14.8672C378.324 22.8828 371.715 29.457 363.646 29.457ZM363.646 24.957C369.236 24.957 373.824 20.4043 373.824 14.832C373.824 9.22461 369.236 4.6543 363.646 4.6543C358.057 4.6543 353.504 9.22461 353.504 14.832C353.504 20.4043 358.057 24.957 363.646 24.957ZM419.844 29.5273C413.814 29.5273 409.139 24.7637 409.139 18.2598V0.664062H413.604V18.2422C413.604 22.1621 416.363 25.0273 419.826 25.0273C423.289 25.0273 426.084 22.1621 426.084 18.2422V0.664062H430.566V18.2598C430.566 24.7637 425.873 29.5273 419.844 29.5273Z" fill="white"/>
</svg>
