<svg width="334" height="43" viewBox="0 0 334 43" fill="none" xmlns="http://www.w3.org/2000/svg">
<path d="M19.7478 15.5738V17.5347H16.3728V28.1675H14.3884V17.5347H11.0134V15.5738H19.7478ZM37.4678 15.5738H39.4444V28.1675H37.4678V22.8472H32.0147V28.1675H30.0459V15.5738H32.0147V20.8863H37.4678V15.5738ZM58.0941 17.5191H52.5706V20.7457H57.3362V22.7144H52.5706V26.1988H58.0941V28.1675H50.5941V15.5738H58.0941V17.5191ZM91.0731 28.1675L90.2137 26.2535H84.2528L83.3934 28.1675H81.2528L87.1747 15.316H87.2919L93.2137 28.1675H91.0731ZM85.0184 24.5582H89.4481L87.2372 19.6363L85.0184 24.5582ZM111.473 15.5425H113.457V28.3863H113.363L105.309 19.9722V28.1832H103.332V15.355H103.434L111.473 23.7535V15.5425ZM130.529 28.3707C126.958 28.3707 123.997 25.4332 123.997 21.8785C123.997 18.3316 126.958 15.355 130.497 15.355C132.13 15.3785 133.638 16.0738 134.872 17.2769L133.724 18.8316C132.841 17.9488 131.693 17.3629 130.458 17.3629C128.177 17.3629 125.997 19.3629 125.997 21.8863C125.997 24.4254 128.208 26.3863 130.466 26.3863C131.755 26.3863 132.865 25.7457 133.732 24.8863L134.872 26.48C133.787 27.5504 132.404 28.3707 130.529 28.3707ZM145.163 28.1675V15.5738H147.139V28.1675H145.163ZM165.789 17.5191H160.266V20.7457H165.031V22.7144H160.266V26.1988H165.789V28.1675H158.289V15.5738H165.789V17.5191ZM184.712 15.5425H186.697V28.3863H186.603L178.548 19.9722V28.1832H176.572V15.355H176.673L184.712 23.7535V15.5425ZM205.729 15.5738V17.5347H202.354V28.1675H200.37V17.5347H196.995V15.5738H205.729ZM232.411 28.2847L228.403 15.5738H230.536L232.872 23.3472L235.755 16.105H235.833L238.716 23.3394L241.044 15.5738H243.177L239.177 28.2847H238.997L235.771 20.691L232.591 28.2847H232.411ZM258.319 28.3707C254.741 28.3707 251.819 25.4488 251.819 21.8863C251.819 18.2925 254.741 15.355 258.327 15.355C261.905 15.355 264.842 18.2925 264.842 21.8863C264.842 25.4488 261.905 28.3707 258.319 28.3707ZM258.319 26.3707C260.803 26.3707 262.842 24.3472 262.842 21.8707C262.842 19.3785 260.803 17.3472 258.319 17.3472C255.834 17.3472 253.811 19.3785 253.811 21.8707C253.811 24.3472 255.834 26.3707 258.319 26.3707ZM284.726 28.1675H282.297L278.906 23.2925H277.359V28.1675H275.383L275.375 15.5738H279.289C281.633 15.5738 283.554 17.3785 283.554 19.6207C283.554 21.2457 282.508 22.6597 281.062 23.1285L284.726 28.1675ZM277.351 21.6519H279.336C280.523 21.6597 281.515 20.6988 281.515 19.5738C281.515 18.4019 280.508 17.5347 279.336 17.5347H277.351V21.6519ZM296.759 26.1988H302.376V28.1675H294.782V15.5738H296.759V26.1988ZM316.26 15.5738C320.26 15.566 322.752 17.9879 322.752 21.8863C322.752 25.7535 320.26 28.1675 316.26 28.1675H312.674V15.5738H316.26ZM316.276 26.1988C319.026 26.1988 320.752 24.5347 320.752 21.8785C320.752 19.2066 319.018 17.5347 316.252 17.5347H314.643V26.1988H316.276Z" fill="black"/>
</svg>
