<svg width="360" height="21" viewBox="0 0 360 21" fill="none" xmlns="http://www.w3.org/2000/svg">
<path d="M14.0648 1.10938V4.05078H9.00235V20H6.02579V4.05078H0.963287V1.10938H14.0648ZM47.2449 1.10938H50.2097V20H47.2449V12.0195H39.0652V20H36.112V1.10938H39.0652V9.07812H47.2449V1.10938ZM84.7842 4.02734H76.4991V8.86719H83.6475V11.8203H76.4991V17.0469H84.7842V20H73.5342V1.10938H84.7842V4.02734ZM147.453 20L146.164 17.1289H137.222L135.933 20H132.722L141.605 0.722656H141.781L150.664 20H147.453ZM138.371 14.5859H145.015L141.699 7.20312L138.371 14.5859ZM184.652 1.0625H187.629V20.3281H187.488L175.406 7.70703V20.0234H172.441V0.78125H172.594L184.652 13.3789V1.0625ZM219.836 20.3047C214.481 20.3047 210.039 15.8984 210.039 10.5664C210.039 5.24609 214.481 0.78125 219.789 0.78125C222.239 0.816406 224.5 1.85938 226.352 3.66406L224.629 5.99609C223.305 4.67188 221.582 3.79297 219.731 3.79297C216.309 3.79297 213.039 6.79297 213.039 10.5781C213.039 14.3867 216.356 17.3281 219.743 17.3281C221.676 17.3281 223.34 16.3672 224.641 15.0781L226.352 17.4688C224.723 19.0742 222.649 20.3047 219.836 20.3047ZM248.387 20V1.10938H251.352V20H248.387ZM285.927 4.02734H277.642V8.86719H284.79V11.8203H277.642V17.0469H285.927V20H274.677V1.10938H285.927V4.02734ZM320.911 1.0625H323.888V20.3281H323.747L311.665 7.70703V20.0234H308.7V0.78125H308.853L320.911 13.3789V1.0625ZM359.037 1.10938V4.05078H353.974V20H350.998V4.05078H345.935V1.10938H359.037Z" fill="white"/>
</svg>
