<svg width="952" height="190" viewBox="0 0 952 190" fill="none" xmlns="http://www.w3.org/2000/svg">
<path d="M28.543 33.16V9.44799H25.183C22.111 9.44799 16.351 9.544 12.319 10.984C10.207 12.52 5.98299 18.376 3.58299 21.832C3.29499 22.312 3.00699 22.6 2.62299 22.504L0.510989 21.736C0.126989 21.64 0.030989 21.16 0.126989 20.872C1.18299 16.84 4.35099 4.168 4.73499 2.248C5.02299 0.999994 5.50299 0.615999 6.17499 0.615999C6.84699 0.615999 7.13499 0.999994 7.99899 2.056C9.05499 3.4 10.879 4.264 14.335 4.456C19.423 4.744 23.455 5.032 33.439 5.032H39.007C49.471 5.032 53.599 4.648 57.631 4.456C59.743 4.36 63.487 3.20799 64.639 2.056C65.599 1.096 66.175 0.615999 66.847 0.615999C67.519 0.615999 67.807 0.999994 67.999 2.152C68.287 4.264 70.111 16.168 70.879 21.256C70.975 21.64 70.783 22.024 70.495 22.12L68.479 22.888C68.095 22.984 67.903 22.696 67.519 22.024C65.407 18.568 61.663 13.576 59.263 11.272C56.863 9.832 48.319 9.44799 46.111 9.44799H42.943V35.848C42.943 37.192 42.943 64.072 43.039 65.512C43.231 67.912 43.999 69.352 46.303 69.352H50.623C51.487 69.352 51.583 69.64 51.583 70.312V72.52C51.583 73 51.487 73.288 50.623 73.288C49.663 73.288 46.591 73 35.935 73C25.759 73 21.727 73.288 20.383 73.288C19.615 73.288 19.519 72.904 19.519 72.136V70.312C19.519 69.64 19.615 69.352 20.191 69.352H25.087C27.007 69.352 28.159 68.2 28.351 66.472C28.543 64.456 28.543 34.984 28.543 33.16ZM94.0682 74.344C87.0602 74.344 82.2602 72.904 77.3642 67.336C73.7162 63.304 72.2762 58.216 72.2762 52.168C72.2762 47.848 74.6762 40.744 80.5322 36.232C85.4282 32.392 90.3242 31.336 94.8362 31.336C101.46 31.336 105.972 33.352 110.292 37.384C114.996 41.608 116.916 46.792 116.916 52.648C116.916 58.216 114.516 63.592 110.772 67.624C106.164 72.424 100.596 74.344 94.0682 74.344ZM94.6442 70.312C99.9242 70.312 102.324 62.536 102.324 51.976C102.324 40.84 98.4842 35.368 94.2602 35.368C91.8602 35.368 90.3242 36.04 89.0762 37.96C87.1562 40.936 85.9082 45.064 85.9082 52.84C85.9082 58.408 86.3882 62.056 88.3082 66.184C89.5562 68.776 91.0922 70.312 94.6442 70.312ZM177.164 74.344C170.156 74.344 165.356 72.904 160.46 67.336C156.812 63.304 155.372 58.216 155.372 52.168C155.372 47.848 157.772 40.744 163.628 36.232C168.524 32.392 173.42 31.336 177.932 31.336C184.556 31.336 189.068 33.352 193.388 37.384C198.092 41.608 200.012 46.792 200.012 52.648C200.012 58.216 197.612 63.592 193.868 67.624C189.26 72.424 183.692 74.344 177.164 74.344ZM177.74 70.312C183.02 70.312 185.42 62.536 185.42 51.976C185.42 40.84 181.58 35.368 177.356 35.368C174.956 35.368 173.42 36.04 172.172 37.96C170.252 40.936 169.004 45.064 169.004 52.84C169.004 58.408 169.484 62.056 171.404 66.184C172.652 68.776 174.188 70.312 177.74 70.312ZM260.818 70.6L247.378 73.96C246.802 74.152 246.13 74.344 245.266 74.344C244.306 74.344 243.73 73.864 243.634 73.192L243.058 68.008H242.482C240.562 71.368 234.994 74.344 229.81 74.344C225.97 74.344 223.09 74.344 219.73 69.928C215.698 64.552 216.082 61.48 216.082 53.224L216.178 49C216.178 45.352 216.178 41.512 216.082 39.4C215.986 37.096 213.97 36.232 212.818 36.04C211.186 35.752 210.706 35.848 210.706 35.368V33.448C210.706 32.872 210.898 32.68 211.762 32.68H225.778C226.354 32.68 226.738 32.584 227.122 32.488C227.506 32.488 227.89 32.392 228.178 32.392C228.85 32.392 229.33 32.872 229.234 33.544C229.138 34.408 228.85 38.92 228.85 46.504V51.688C228.85 55.528 228.274 62.728 230.674 66.472C232.114 68.68 233.65 68.488 235.378 68.488C237.01 68.488 239.122 67.24 240.562 65.416C241.426 64.456 242.098 62.92 242.098 61.96L242.002 39.4C242.002 37 240.274 36.232 237.874 36.04C236.722 35.944 236.242 35.848 236.242 35.368V33.544C236.242 32.776 236.434 32.68 237.394 32.68H251.698C252.37 32.68 252.85 32.584 253.33 32.488C253.81 32.488 254.194 32.392 254.482 32.392C255.058 32.392 255.442 32.872 255.346 33.352C255.25 34.216 254.77 36.712 254.77 46.408V53.512C254.77 58.12 254.77 62.824 254.962 64.552C255.25 67.528 256.306 67.912 256.69 67.912C257.266 67.912 258.706 67.912 259.858 67.624C260.626 67.432 260.914 67.624 261.01 68.008L261.298 69.832C261.394 70.312 261.202 70.504 260.818 70.6ZM289.126 47.656V65.704C289.126 68.68 290.086 69.64 292.102 69.64H296.038C296.614 69.64 296.71 69.928 296.71 70.504V72.424C296.71 73 296.614 73.288 296.23 73.288C295.654 73.288 291.238 73 282.598 73C275.206 73 271.174 73.288 270.598 73.288C270.214 73.288 270.022 73.096 270.022 72.328V70.504C270.022 69.832 270.214 69.64 271.078 69.64H273.862C275.302 69.64 276.166 69.064 276.358 67.336C276.55 64.648 276.55 61.288 276.55 56.488V48.52C276.55 44.392 275.59 42.664 272.71 41.032L271.078 40.072C270.502 39.784 270.31 39.592 270.31 39.208V38.344C270.31 37.96 270.502 37.768 271.078 37.576L284.518 31.72C285.094 31.528 285.478 31.336 286.054 31.336C286.726 31.336 287.11 31.912 287.206 32.488L288.07 39.976H288.742C291.718 33.64 295.942 30.76 300.166 30.76C303.046 30.76 305.254 32.968 305.254 36.328C305.254 38.92 302.278 41.8 299.11 41.8C297.766 41.8 296.518 41.512 295.654 40.936C294.886 40.456 294.022 40.264 293.254 40.264C292.294 40.264 291.334 40.744 290.758 41.992C289.51 44.584 289.126 46.408 289.126 47.656ZM344.269 51.592L346.765 51.784C347.149 51.784 347.437 51.88 347.437 52.552C347.629 55.528 348.973 59.656 351.277 63.4C354.061 67.816 358.765 69.928 363.373 69.928C367.981 69.928 375.373 66.856 375.373 59.272C375.373 51.304 373.837 49 361.357 44.296C358.477 43.24 352.333 40.168 347.437 35.944C344.077 32.968 342.637 27.88 342.637 22.312C342.637 16.456 344.077 12.52 349.837 8.2C354.157 4.936 357.805 3.592 363.661 3.592C370.669 3.592 374.413 4.744 376.429 5.512C377.389 5.89599 378.061 5.704 378.637 5.032L379.885 3.784C380.269 3.4 380.749 3.20799 381.325 3.20799C381.997 3.20799 382.189 4.264 382.285 4.84L383.821 21.256C383.821 21.64 383.629 21.736 383.341 21.832L381.229 22.504C380.749 22.696 380.269 22.504 379.981 21.832C378.925 19.048 377.293 15.304 374.029 11.848C371.629 9.16 368.749 7.816 364.429 7.816C357.229 7.816 354.253 14.056 354.253 16.552C354.253 20.104 354.349 22.984 356.749 25.384C359.245 27.976 364.717 30.28 369.421 31.624C374.029 32.968 377.773 35.368 381.709 38.92C385.453 42.28 386.989 46.504 386.989 53.224C386.989 64.936 378.637 74.44 365.965 74.44C357.325 74.44 352.813 73 348.781 70.312C347.629 69.544 347.053 69.256 346.573 69.256C345.997 69.256 345.613 69.928 345.037 70.888C344.461 71.944 343.981 72.04 343.309 72.04C342.253 72.04 341.869 71.56 341.965 70.504L343.501 52.264C343.597 51.592 343.885 51.592 344.269 51.592ZM406.859 82.792L406.763 47.368C406.763 44.104 406.475 42.664 403.595 41.128L401.387 39.976C400.907 39.688 400.715 39.496 400.715 39.112V37.864C400.715 37.576 400.907 37.384 401.387 37.192L413.867 32.296C415.115 31.816 415.979 31.336 416.843 31.336C417.419 31.336 417.707 32.008 417.995 33.352L418.667 36.904H419.051C421.452 33.928 426.444 31.336 431.244 31.336C436.428 31.336 439.98 32.776 443.148 36.232C447.179 40.648 448.524 44.008 448.331 49.576C448.428 64.168 438.636 74.344 426.444 74.344C424.811 74.344 421.739 74.248 419.244 72.808L419.34 87.496C419.435 95.272 420.395 95.752 422.7 95.752H425.1C425.867 95.752 425.964 96.136 425.964 96.712V98.536C425.964 99.112 425.772 99.4 425.1 99.4C424.62 99.4 421.356 99.112 412.812 99.112C405.803 99.112 402.443 99.4 401.675 99.4C401.003 99.4 400.811 99.112 400.811 98.44V96.52C400.811 96.04 401.003 95.752 401.963 95.752H404.171C405.803 95.752 406.475 94.792 406.667 93.256C406.859 91.144 406.859 88.264 406.859 82.792ZM419.244 40.552V62.824C419.244 64.36 419.916 66.856 421.835 68.392C423.275 69.544 425.292 70.6 427.595 70.6C431.627 70.6 435.179 67.048 435.179 57.832C435.179 51.784 434.507 37.96 425.195 37.96C423.372 37.96 420.78 38.728 419.244 40.552ZM482.609 74.344C475.602 74.344 470.802 72.904 465.906 67.336C462.258 63.304 460.818 58.216 460.818 52.168C460.818 47.848 463.218 40.744 469.074 36.232C473.97 32.392 478.866 31.336 483.378 31.336C490.002 31.336 494.514 33.352 498.834 37.384C503.538 41.608 505.458 46.792 505.458 52.648C505.458 58.216 503.058 63.592 499.314 67.624C494.706 72.424 489.138 74.344 482.609 74.344ZM483.186 70.312C488.466 70.312 490.866 62.536 490.866 51.976C490.866 40.84 487.026 35.368 482.802 35.368C480.402 35.368 478.866 36.04 477.618 37.96C475.698 40.936 474.45 45.064 474.45 52.84C474.45 58.408 474.93 62.056 476.85 66.184C478.098 68.776 479.634 70.312 483.186 70.312ZM534.199 32.488L535.255 36.616H536.023C537.079 35.368 538.807 34.12 540.631 33.16C542.743 32.008 544.855 31.336 548.023 31.336C551.767 31.336 555.415 31.72 557.911 34.024C561.943 37.768 562.231 40.168 562.231 44.968V55.144C562.231 58.408 562.039 62.92 561.847 66.28C561.751 69.16 563.287 69.64 564.151 69.64H566.743C567.607 69.64 567.799 69.928 567.799 70.504V72.232C567.799 72.904 567.607 73.288 567.031 73.288C566.359 73.288 563.383 73 555.703 73C549.367 73 546.295 73.288 545.623 73.288C545.047 73.288 544.855 73 544.855 72.232V70.504C544.855 69.832 545.143 69.64 546.103 69.64H547.159C547.831 69.64 548.695 69.16 548.887 67.432C549.271 64.936 549.463 61.864 549.463 57.448V47.176C549.463 43.528 549.175 41.032 547.159 39.208C545.431 37.672 544.087 37.48 542.455 37.48C540.727 37.48 539.479 37.96 537.559 39.4C536.407 40.264 535.639 42.856 535.639 46.792L535.447 66.472C535.447 68.2 536.119 69.64 536.983 69.64H538.231C538.999 69.64 539.191 69.928 539.191 70.6V72.424C539.191 73 538.999 73.288 538.519 73.288C537.847 73.288 535.255 73 528.919 73C522.103 73 519.031 73.288 518.455 73.288C517.975 73.288 517.783 73 517.783 72.424V70.504C517.783 69.928 517.975 69.64 518.743 69.64H520.183C521.239 69.64 522.871 69.352 522.871 67.72V46.408C522.871 43.528 521.239 41.896 519.031 40.84L518.167 40.456C517.591 40.168 517.495 39.784 517.495 39.4V38.536C517.495 38.056 517.879 37.768 518.359 37.576L530.647 32.008C531.415 31.72 532.087 31.336 532.855 31.336C533.431 31.336 534.007 31.816 534.199 32.488ZM607.584 35.176L608.928 42.28C609.024 42.76 608.928 42.952 608.544 43.144L606.816 43.912C606.528 44.104 606.24 44.008 605.856 43.624L600.48 37.864C599.232 36.616 597.408 35.08 594.528 35.08C591.648 35.08 588.864 37 588.864 40.264C589.056 43.624 590.208 44.584 597.312 46.504C602.016 47.752 604.32 48.424 607.2 51.496C609.696 53.992 610.272 56.296 610.272 59.656C610.272 68.2 603.552 74.344 593.088 74.344C587.712 74.344 583.008 72.424 581.856 71.56C581.472 71.272 581.376 70.888 581.28 70.312L580.032 61.096C580.032 60.616 580.32 60.424 580.704 60.328L582.432 59.848C582.72 59.752 582.912 59.848 583.104 60.232L586.944 65.896C588.672 68.392 590.88 70.792 595.296 70.792C598.848 70.792 600.96 68.296 600.96 64.936C600.96 61.096 598.176 59.848 591.936 57.928C585.12 55.912 580.224 52.648 580.224 45.736C580.224 41.224 581.568 37.48 585.216 34.792C589.056 32.008 591.744 31.336 595.776 31.336C600.96 31.336 604.128 32.488 605.856 33.352C607.296 34.024 607.488 34.504 607.584 35.176ZM644.707 74.344C637.699 74.344 632.899 72.904 628.003 67.336C624.355 63.304 622.915 58.216 622.915 52.168C622.915 47.848 625.315 40.744 631.171 36.232C636.067 32.392 640.963 31.336 645.475 31.336C652.099 31.336 656.611 33.352 660.931 37.384C665.635 41.608 667.555 46.792 667.555 52.648C667.555 58.216 665.155 63.592 661.411 67.624C656.803 72.424 651.235 74.344 644.707 74.344ZM645.283 70.312C650.563 70.312 652.963 62.536 652.963 51.976C652.963 40.84 649.123 35.368 644.899 35.368C642.499 35.368 640.963 36.04 639.715 37.96C637.795 40.936 636.547 45.064 636.547 52.84C636.547 58.408 637.027 62.056 638.947 66.184C640.195 68.776 641.731 70.312 645.283 70.312ZM697.449 47.656V65.704C697.449 68.68 698.409 69.64 700.425 69.64H704.361C704.937 69.64 705.033 69.928 705.033 70.504V72.424C705.033 73 704.937 73.288 704.553 73.288C703.977 73.288 699.561 73 690.921 73C683.529 73 679.497 73.288 678.921 73.288C678.537 73.288 678.345 73.096 678.345 72.328V70.504C678.345 69.832 678.537 69.64 679.401 69.64H682.185C683.625 69.64 684.489 69.064 684.681 67.336C684.873 64.648 684.873 61.288 684.873 56.488V48.52C684.873 44.392 683.913 42.664 681.033 41.032L679.401 40.072C678.825 39.784 678.633 39.592 678.633 39.208V38.344C678.633 37.96 678.825 37.768 679.401 37.576L692.841 31.72C693.417 31.528 693.801 31.336 694.377 31.336C695.049 31.336 695.433 31.912 695.529 32.488L696.393 39.976H697.065C700.041 33.64 704.265 30.76 708.489 30.76C711.369 30.76 713.577 32.968 713.577 36.328C713.577 38.92 710.601 41.8 707.433 41.8C706.089 41.8 704.841 41.512 703.977 40.936C703.209 40.456 702.345 40.264 701.577 40.264C700.617 40.264 699.657 40.744 699.081 41.992C697.833 44.584 697.449 46.408 697.449 47.656ZM750.557 35.176L751.901 42.28C751.997 42.76 751.901 42.952 751.517 43.144L749.789 43.912C749.501 44.104 749.213 44.008 748.829 43.624L743.453 37.864C742.205 36.616 740.381 35.08 737.501 35.08C734.621 35.08 731.837 37 731.837 40.264C732.029 43.624 733.181 44.584 740.285 46.504C744.989 47.752 747.293 48.424 750.173 51.496C752.669 53.992 753.245 56.296 753.245 59.656C753.245 68.2 746.525 74.344 736.061 74.344C730.685 74.344 725.981 72.424 724.829 71.56C724.445 71.272 724.349 70.888 724.253 70.312L723.005 61.096C723.005 60.616 723.293 60.424 723.677 60.328L725.405 59.848C725.693 59.752 725.885 59.848 726.077 60.232L729.917 65.896C731.645 68.392 733.853 70.792 738.269 70.792C741.821 70.792 743.933 68.296 743.933 64.936C743.933 61.096 741.149 59.848 734.909 57.928C728.093 55.912 723.197 52.648 723.197 45.736C723.197 41.224 724.541 37.48 728.189 34.792C732.029 32.008 734.717 31.336 738.749 31.336C743.933 31.336 747.101 32.488 748.829 33.352C750.269 34.024 750.461 34.504 750.557 35.176ZM813.33 47.464V42.376C813.33 40.456 813.138 38.248 811.89 37.096C810.93 36.232 809.394 35.944 807.858 35.944C806.13 35.944 804.498 36.328 802.77 37.48C801.33 38.44 802.482 40.072 802.482 43.144C802.482 46.408 800.082 48.616 796.242 48.616C794.034 48.616 792.114 47.272 792.114 45.16C792.114 43.048 792.786 40.168 794.802 38.44C798.834 34.792 805.458 31.336 813.234 31.336C819.378 31.336 821.01 32.296 823.026 34.12C825.138 36.04 825.714 38.824 825.714 42.28L825.906 61.384C826.002 66.376 826.29 67.912 828.114 67.912C829.458 67.912 830.514 66.856 830.898 66.184C831.282 65.608 831.57 65.512 831.858 65.704L833.202 66.472C833.586 66.664 833.874 66.952 833.49 67.816C832.626 69.832 829.746 74.344 823.794 74.344C820.05 74.344 816.498 73 814.674 68.488H814.194C811.794 70.696 809.778 72.04 805.938 73.48C804.018 74.152 801.81 74.344 799.026 74.344C795.666 74.344 792.69 70.696 792.69 65.512C792.69 61.288 794.706 56.872 800.946 53.8C808.434 50.248 810.834 49.192 813.33 47.464ZM813.426 64.936V51.304C808.722 53.992 804.786 55.432 804.786 62.056C804.786 66.472 806.802 68.296 808.914 68.392C811.506 68.2 813.426 65.8 813.426 64.936ZM858.552 32.488L859.608 36.616H860.376C861.432 35.368 863.16 34.12 864.984 33.16C867.096 32.008 869.208 31.336 872.376 31.336C876.12 31.336 879.768 31.72 882.264 34.024C886.296 37.768 886.584 40.168 886.584 44.968V55.144C886.584 58.408 886.392 62.92 886.2 66.28C886.104 69.16 887.64 69.64 888.504 69.64H891.096C891.96 69.64 892.152 69.928 892.152 70.504V72.232C892.152 72.904 891.96 73.288 891.384 73.288C890.712 73.288 887.736 73 880.056 73C873.72 73 870.648 73.288 869.976 73.288C869.4 73.288 869.208 73 869.208 72.232V70.504C869.208 69.832 869.496 69.64 870.456 69.64H871.512C872.184 69.64 873.048 69.16 873.24 67.432C873.624 64.936 873.816 61.864 873.816 57.448V47.176C873.816 43.528 873.528 41.032 871.512 39.208C869.784 37.672 868.44 37.48 866.808 37.48C865.08 37.48 863.832 37.96 861.912 39.4C860.76 40.264 859.992 42.856 859.992 46.792L859.8 66.472C859.8 68.2 860.472 69.64 861.336 69.64H862.584C863.352 69.64 863.544 69.928 863.544 70.6V72.424C863.544 73 863.352 73.288 862.872 73.288C862.2 73.288 859.608 73 853.272 73C846.456 73 843.384 73.288 842.808 73.288C842.328 73.288 842.136 73 842.136 72.424V70.504C842.136 69.928 842.328 69.64 843.096 69.64H844.536C845.592 69.64 847.224 69.352 847.224 67.72V46.408C847.224 43.528 845.592 41.896 843.384 40.84L842.52 40.456C841.944 40.168 841.848 39.784 841.848 39.4V38.536C841.848 38.056 842.232 37.768 842.712 37.576L855 32.008C855.768 31.72 856.44 31.336 857.208 31.336C857.784 31.336 858.36 31.816 858.552 32.488ZM932.033 32.584L931.649 13.192C931.553 10.504 930.497 8.96799 925.409 7.72C924.833 7.62399 924.737 7.432 924.737 7.048V5.224C924.737 4.84 924.929 4.55199 925.505 4.456C931.169 3.976 938.561 3.4 941.729 2.72799C943.073 2.44 943.457 2.248 944.225 2.248C944.801 2.248 945.185 2.92 945.089 3.976C944.705 8.776 944.513 22.696 944.513 36.232V57.448C944.513 61 944.513 64.744 945.473 66.28C946.241 67.528 947.489 67.624 949.793 67.336C950.849 67.24 951.233 67.528 951.329 68.008L951.617 69.448C951.713 70.024 951.521 70.312 950.945 70.504L936.545 74.152C935.969 74.344 935.489 74.056 935.201 73.288L933.665 68.488C930.593 72.04 924.929 74.344 920.801 74.344C915.809 74.344 913.889 73.96 909.377 69.736C905.633 66.376 903.329 62.44 903.329 56.104C903.329 48.424 904.673 43.432 910.049 37.48C913.793 33.352 918.209 31.336 924.257 31.336C927.425 31.336 930.209 31.912 932.033 32.584ZM932.225 61.48L931.937 44.008C931.937 42.28 931.841 40.648 931.169 39.4C929.729 36.808 926.561 35.08 923.873 35.08C922.145 35.08 920.321 35.752 918.881 37.768C916.577 40.936 915.809 44.2 915.809 48.808C915.809 60.136 920.705 68.008 926.657 68.008C929.249 68.008 930.305 67.048 931.265 66.088C932.033 65.32 932.225 63.592 932.225 61.48ZM157.396 123.296L157.108 151.232C161.524 151.232 165.748 150.944 166.9 150.656C168.532 150.272 169.876 149.408 171.316 147.68C172.372 146.24 173.524 143.552 173.524 141.728C173.524 141.056 173.812 140.864 174.292 140.864L176.884 141.152C177.364 141.248 177.748 141.344 177.652 141.92C177.364 143.552 177.364 148.544 177.364 151.904C177.364 156.224 177.748 160.832 177.94 162.848C178.036 163.424 177.652 163.52 177.172 163.616L174.868 164.096C174.484 164.192 174.292 164 174.1 163.328C173.716 161.792 172.756 159.584 172.18 158.432C171.124 156.608 168.82 155.36 166.9 155.072C164.308 154.688 161.332 154.496 157.108 154.496V160.256C157.108 165.44 157.588 174.752 157.588 176.48C157.588 181.472 158.644 183.2 159.892 183.776C161.332 184.352 163.156 184.64 167.956 184.64C169.588 184.64 173.62 184.544 175.636 184.352C177.556 184.16 180.436 183.2 182.932 181.184C185.428 179.168 190.804 173.216 192.724 170.912C193.108 170.528 193.396 170.432 193.684 170.624L195.316 171.584C195.7 171.776 195.796 172.064 195.7 172.352L191.38 186.848C191.092 187.712 190.42 188.288 189.268 188.288C188.788 188.288 186.676 188.192 180.532 188.096C174.292 188.096 164.116 188 147.508 188C143.956 188 141.268 188.096 139.348 188.096C137.332 188.192 136.084 188.288 135.22 188.288C134.548 188.288 134.356 188 134.356 187.232V185.216C134.356 184.64 134.644 184.352 135.316 184.352H138.196C142.612 184.352 142.996 183.68 142.996 180.32V148.16C142.996 140.192 142.804 128.384 142.708 127.424C142.324 124.352 141.364 123.68 138.772 123.68H135.028C134.644 123.68 134.548 123.392 134.548 122.72V120.416C134.548 120.128 134.644 119.744 135.22 119.744C137.332 119.744 140.692 120.032 149.428 120.032L183.124 119.936C184.66 119.936 186.484 119.744 186.964 119.744C187.444 119.744 187.636 119.936 187.732 120.224C188.116 121.568 191.284 134.72 191.668 135.68C191.86 136.16 191.86 136.352 191.38 136.64L189.844 137.408C189.46 137.6 188.98 137.504 188.692 137.024C188.212 136.256 179.572 127.616 177.364 126.272C175.348 125.024 172.66 123.776 170.068 123.68L157.396 123.296ZM202.258 150.08V148.16C202.258 147.488 202.45 147.392 203.314 147.392C204.37 147.392 206.002 147.68 215.986 147.68C222.514 147.68 225.01 147.392 226.066 147.392C226.834 147.392 227.026 147.584 227.026 148.16V150.08C227.026 150.656 226.93 151.04 226.354 151.04H225.106C223.858 151.04 222.61 151.616 222.61 152.672C222.61 154.4 225.49 162.08 226.162 163.808L230.29 174.176H230.866C231.634 172.544 236.626 160.64 238.546 155.36C239.41 152.96 237.874 151.04 236.146 151.04H234.418C234.13 151.04 234.034 150.56 234.034 150.08V148.16C234.034 147.584 234.226 147.392 234.61 147.392C235.954 147.392 238.066 147.68 243.922 147.68C248.914 147.68 251.218 147.392 252.082 147.392C252.85 147.392 252.946 147.488 252.946 148.256V150.08C252.946 150.752 252.946 151.04 252.466 151.04H250.834C249.49 151.04 247.57 151.232 246.418 152.48C244.69 154.4 240.466 162.944 238.258 167.552C237.106 170.048 229.522 186.368 228.946 187.52C228.37 188.576 227.794 189.44 226.45 189.44C225.202 189.44 224.53 188.48 223.666 187.04C222.706 185.6 214.93 168.416 214.546 167.456C214.162 166.496 209.65 155.744 208.978 154.592C207.346 151.904 206.482 151.04 204.754 151.04H202.834C202.354 151.04 202.258 150.656 202.258 150.08ZM293.245 164.096H271.261V166.688C271.261 176.672 276.925 181.568 283.933 181.568C288.637 181.568 292.477 179.36 294.397 176.288C294.589 175.808 294.973 175.712 295.357 176L296.989 176.864C297.373 177.056 297.661 177.536 296.797 179.168C295.069 182.72 288.829 189.344 279.805 189.344C273.661 189.344 268.573 188.288 265.405 184.832C260.509 179.552 258.877 175.808 258.781 168.32C258.781 165.632 258.781 160.544 263.101 154.208C266.557 149.12 272.413 146.336 279.805 146.336C295.357 146.336 296.221 161.216 296.221 162.752C296.221 164 295.357 164.096 293.245 164.096ZM271.357 160.448H280.573C282.685 160.448 283.645 159.968 283.645 158.528C283.645 154.304 281.917 150.176 278.941 150.176C274.429 150.176 272.029 153.728 271.357 160.448ZM325.037 147.488L326.093 151.616H326.861C327.917 150.368 329.645 149.12 331.469 148.16C333.581 147.008 335.693 146.336 338.861 146.336C342.605 146.336 346.253 146.72 348.749 149.024C352.781 152.768 353.069 155.168 353.069 159.968V170.144C353.069 173.408 352.877 177.92 352.685 181.28C352.589 184.16 354.125 184.64 354.989 184.64H357.581C358.445 184.64 358.637 184.928 358.637 185.504V187.232C358.637 187.904 358.445 188.288 357.869 188.288C357.197 188.288 354.221 188 346.541 188C340.205 188 337.133 188.288 336.461 188.288C335.885 188.288 335.693 188 335.693 187.232V185.504C335.693 184.832 335.981 184.64 336.941 184.64H337.997C338.669 184.64 339.533 184.16 339.725 182.432C340.109 179.936 340.301 176.864 340.301 172.448V162.176C340.301 158.528 340.013 156.032 337.997 154.208C336.269 152.672 334.925 152.48 333.293 152.48C331.565 152.48 330.317 152.96 328.397 154.4C327.245 155.264 326.477 157.856 326.477 161.792L326.285 181.472C326.285 183.2 326.957 184.64 327.821 184.64H329.069C329.837 184.64 330.029 184.928 330.029 185.6V187.424C330.029 188 329.837 188.288 329.357 188.288C328.685 188.288 326.093 188 319.757 188C312.941 188 309.869 188.288 309.293 188.288C308.813 188.288 308.621 188 308.621 187.424V185.504C308.621 184.928 308.813 184.64 309.581 184.64H311.021C312.077 184.64 313.709 184.352 313.709 182.72V161.408C313.709 158.528 312.077 156.896 309.869 155.84L309.005 155.456C308.429 155.168 308.333 154.784 308.333 154.4V153.536C308.333 153.056 308.717 152.768 309.197 152.576L321.485 147.008C322.253 146.72 322.925 146.336 323.693 146.336C324.269 146.336 324.845 146.816 325.037 147.488ZM386.998 166.4V173.984C386.998 181.856 389.974 183.584 392.278 183.584C394.294 183.584 395.734 183.296 397.27 182.432C397.558 182.24 397.846 182.24 398.134 182.816L398.806 184.256C399.094 184.736 398.806 185.216 398.422 185.504C396.79 186.656 392.47 189.344 384.982 189.344C378.454 189.344 374.326 184.832 374.326 180.416C374.326 177.056 374.518 169.76 374.518 166.112L374.614 153.44H369.334C368.47 153.44 367.798 153.056 367.798 152.096C367.798 151.136 368.374 150.464 369.91 149.696C373.078 148.256 381.142 141.056 384.694 137.024C385.366 136.256 386.038 136.064 386.518 136.064C387.382 136.064 387.766 136.736 387.766 137.504L387.382 147.68H399.574C400.15 147.68 400.438 148.16 400.246 148.544L399.286 152.672C399.19 153.056 398.998 153.44 398.422 153.44H387.19C386.998 157.376 386.998 161.984 386.998 166.4Z" fill="#BBEB3F"/>
<path d="M458.04 159.008V162.56C458.04 167.072 458.136 180.128 458.232 181.28C458.424 183.392 459.384 184.352 460.92 184.352H465.816C466.488 184.352 466.584 184.64 466.584 185.024V187.52C466.584 188 466.488 188.288 465.72 188.288C464.376 188.288 461.4 188 450.168 188C441.72 188 437.976 188.288 436.92 188.288C436.248 188.288 436.152 188 436.152 187.616V185.024C436.152 184.544 436.248 184.352 436.728 184.352H439.224C442.488 184.352 443.16 183.872 443.448 181.472C443.544 180.512 443.832 165.536 443.832 154.4V143.36C443.832 137.024 443.736 126.944 443.64 125.792C443.448 123.872 442.488 123.68 440.568 123.68H436.056C435.576 123.68 435.48 123.488 435.48 122.912V120.416C435.48 119.936 435.576 119.744 436.056 119.744C437.112 119.744 440.568 120.032 450.648 120.032C452.376 120.032 458.04 119.744 461.208 119.744C473.016 119.744 478.68 120.704 484.248 125.024C488.28 128.096 491.16 133.568 491.16 139.904C491.16 151.424 481.944 159.296 465.816 159.296C462.84 159.296 460.632 159.2 458.04 159.008ZM458.04 123.68V155.264C460.152 155.744 462.36 155.84 463.896 155.84C466.872 155.84 471.672 152.768 473.784 149.408C475.704 146.432 476.088 142.784 476.088 139.232C476.088 125.984 466.488 123.2 462.552 123.2C460.92 123.2 459.768 123.296 458.04 123.68ZM521.728 162.464V157.376C521.728 155.456 521.536 153.248 520.288 152.096C519.328 151.232 517.792 150.944 516.256 150.944C514.528 150.944 512.896 151.328 511.168 152.48C509.728 153.44 510.88 155.072 510.88 158.144C510.88 161.408 508.48 163.616 504.64 163.616C502.432 163.616 500.512 162.272 500.512 160.16C500.512 158.048 501.184 155.168 503.2 153.44C507.232 149.792 513.856 146.336 521.632 146.336C527.776 146.336 529.408 147.296 531.424 149.12C533.536 151.04 534.112 153.824 534.112 157.28L534.304 176.384C534.4 181.376 534.688 182.912 536.512 182.912C537.856 182.912 538.912 181.856 539.296 181.184C539.68 180.608 539.968 180.512 540.256 180.704L541.6 181.472C541.984 181.664 542.272 181.952 541.888 182.816C541.024 184.832 538.144 189.344 532.192 189.344C528.448 189.344 524.896 188 523.072 183.488H522.592C520.192 185.696 518.176 187.04 514.336 188.48C512.416 189.152 510.208 189.344 507.424 189.344C504.064 189.344 501.088 185.696 501.088 180.512C501.088 176.288 503.104 171.872 509.344 168.8C516.832 165.248 519.232 164.192 521.728 162.464ZM521.824 179.936V166.304C517.12 168.992 513.184 170.432 513.184 177.056C513.184 181.472 515.2 183.296 517.312 183.392C519.904 183.2 521.824 180.8 521.824 179.936ZM568.102 162.656V180.704C568.102 183.68 569.062 184.64 571.078 184.64H575.014C575.59 184.64 575.686 184.928 575.686 185.504V187.424C575.686 188 575.59 188.288 575.206 188.288C574.63 188.288 570.214 188 561.574 188C554.182 188 550.15 188.288 549.574 188.288C549.19 188.288 548.998 188.096 548.998 187.328V185.504C548.998 184.832 549.19 184.64 550.054 184.64H552.838C554.278 184.64 555.142 184.064 555.334 182.336C555.526 179.648 555.526 176.288 555.526 171.488V163.52C555.526 159.392 554.566 157.664 551.686 156.032L550.054 155.072C549.478 154.784 549.286 154.592 549.286 154.208V153.344C549.286 152.96 549.478 152.768 550.054 152.576L563.494 146.72C564.07 146.528 564.454 146.336 565.03 146.336C565.702 146.336 566.086 146.912 566.182 147.488L567.046 154.976H567.718C570.694 148.64 574.918 145.76 579.142 145.76C582.022 145.76 584.23 147.968 584.23 151.328C584.23 153.92 581.254 156.8 578.086 156.8C576.742 156.8 575.494 156.512 574.63 155.936C573.862 155.456 572.998 155.264 572.23 155.264C571.27 155.264 570.31 155.744 569.734 156.992C568.486 159.584 568.102 161.408 568.102 162.656ZM612.223 166.4V173.984C612.223 181.856 615.199 183.584 617.503 183.584C619.519 183.584 620.959 183.296 622.495 182.432C622.783 182.24 623.071 182.24 623.359 182.816L624.031 184.256C624.319 184.736 624.031 185.216 623.647 185.504C622.015 186.656 617.695 189.344 610.207 189.344C603.679 189.344 599.551 184.832 599.551 180.416C599.551 177.056 599.743 169.76 599.743 166.112L599.839 153.44H594.559C593.695 153.44 593.023 153.056 593.023 152.096C593.023 151.136 593.599 150.464 595.135 149.696C598.303 148.256 606.367 141.056 609.919 137.024C610.591 136.256 611.263 136.064 611.743 136.064C612.607 136.064 612.991 136.736 612.991 137.504L612.607 147.68H624.799C625.375 147.68 625.663 148.16 625.471 148.544L624.511 152.672C624.415 153.056 624.223 153.44 623.647 153.44H612.415C612.223 157.376 612.223 161.984 612.223 166.4ZM651.171 147.488L652.227 151.616H652.995C654.051 150.368 655.779 149.12 657.603 148.16C659.715 147.008 661.827 146.336 664.995 146.336C668.739 146.336 672.387 146.72 674.883 149.024C678.915 152.768 679.203 155.168 679.203 159.968V170.144C679.203 173.408 679.011 177.92 678.819 181.28C678.723 184.16 680.259 184.64 681.123 184.64H683.715C684.579 184.64 684.771 184.928 684.771 185.504V187.232C684.771 187.904 684.579 188.288 684.003 188.288C683.331 188.288 680.355 188 672.675 188C666.339 188 663.267 188.288 662.595 188.288C662.019 188.288 661.827 188 661.827 187.232V185.504C661.827 184.832 662.115 184.64 663.075 184.64H664.131C664.803 184.64 665.667 184.16 665.859 182.432C666.243 179.936 666.435 176.864 666.435 172.448V162.176C666.435 158.528 666.147 156.032 664.131 154.208C662.403 152.672 661.059 152.48 659.427 152.48C657.699 152.48 656.451 152.96 654.531 154.4C653.379 155.264 652.611 157.856 652.611 161.792L652.419 181.472C652.419 183.2 653.091 184.64 653.955 184.64H655.203C655.971 184.64 656.163 184.928 656.163 185.6V187.424C656.163 188 655.971 188.288 655.491 188.288C654.819 188.288 652.227 188 645.891 188C639.075 188 636.003 188.288 635.427 188.288C634.947 188.288 634.755 188 634.755 187.424V185.504C634.755 184.928 634.947 184.64 635.715 184.64H637.155C638.211 184.64 639.843 184.352 639.843 182.72V161.408C639.843 158.528 638.211 156.896 636.003 155.84L635.139 155.456C634.563 155.168 634.467 154.784 634.467 154.4V153.536C634.467 153.056 634.851 152.768 635.331 152.576L647.619 147.008C648.387 146.72 649.059 146.336 649.827 146.336C650.403 146.336 650.979 146.816 651.171 147.488ZM730.412 164.096H708.428V166.688C708.428 176.672 714.092 181.568 721.1 181.568C725.804 181.568 729.644 179.36 731.564 176.288C731.756 175.808 732.14 175.712 732.524 176L734.156 176.864C734.54 177.056 734.828 177.536 733.964 179.168C732.236 182.72 725.996 189.344 716.972 189.344C710.828 189.344 705.74 188.288 702.572 184.832C697.676 179.552 696.044 175.808 695.948 168.32C695.948 165.632 695.948 160.544 700.268 154.208C703.724 149.12 709.58 146.336 716.972 146.336C732.524 146.336 733.388 161.216 733.388 162.752C733.388 164 732.524 164.096 730.412 164.096ZM708.524 160.448H717.74C719.852 160.448 720.812 159.968 720.812 158.528C720.812 154.304 719.084 150.176 716.108 150.176C711.596 150.176 709.196 153.728 708.524 160.448ZM763.357 162.656V180.704C763.357 183.68 764.317 184.64 766.333 184.64H770.269C770.845 184.64 770.941 184.928 770.941 185.504V187.424C770.941 188 770.845 188.288 770.461 188.288C769.885 188.288 765.469 188 756.829 188C749.437 188 745.405 188.288 744.829 188.288C744.445 188.288 744.253 188.096 744.253 187.328V185.504C744.253 184.832 744.445 184.64 745.309 184.64H748.093C749.533 184.64 750.397 184.064 750.589 182.336C750.781 179.648 750.781 176.288 750.781 171.488V163.52C750.781 159.392 749.821 157.664 746.941 156.032L745.309 155.072C744.733 154.784 744.541 154.592 744.541 154.208V153.344C744.541 152.96 744.733 152.768 745.309 152.576L758.749 146.72C759.325 146.528 759.709 146.336 760.285 146.336C760.957 146.336 761.341 146.912 761.437 147.488L762.301 154.976H762.973C765.949 148.64 770.173 145.76 774.397 145.76C777.277 145.76 779.485 147.968 779.485 151.328C779.485 153.92 776.509 156.8 773.341 156.8C771.997 156.8 770.749 156.512 769.885 155.936C769.117 155.456 768.253 155.264 767.485 155.264C766.525 155.264 765.565 155.744 764.989 156.992C763.741 159.584 763.357 161.408 763.357 162.656ZM816.465 150.176L817.809 157.28C817.905 157.76 817.809 157.952 817.425 158.144L815.697 158.912C815.409 159.104 815.121 159.008 814.737 158.624L809.361 152.864C808.113 151.616 806.289 150.08 803.409 150.08C800.529 150.08 797.745 152 797.745 155.264C797.937 158.624 799.089 159.584 806.193 161.504C810.897 162.752 813.201 163.424 816.081 166.496C818.577 168.992 819.153 171.296 819.153 174.656C819.153 183.2 812.433 189.344 801.969 189.344C796.593 189.344 791.889 187.424 790.737 186.56C790.353 186.272 790.257 185.888 790.161 185.312L788.913 176.096C788.913 175.616 789.201 175.424 789.585 175.328L791.313 174.848C791.601 174.752 791.793 174.848 791.985 175.232L795.825 180.896C797.553 183.392 799.761 185.792 804.177 185.792C807.729 185.792 809.841 183.296 809.841 179.936C809.841 176.096 807.057 174.848 800.817 172.928C794.001 170.912 789.105 167.648 789.105 160.736C789.105 156.224 790.449 152.48 794.097 149.792C797.937 147.008 800.625 146.336 804.657 146.336C809.841 146.336 813.009 147.488 814.737 148.352C816.177 149.024 816.369 149.504 816.465 150.176Z" fill="white"/>
</svg>
