<svg width="283" height="84" viewBox="0 0 283 84" fill="none" xmlns="http://www.w3.org/2000/svg">
<g clip-path="url(#clip0_32_10)">
<path fill-rule="evenodd" clip-rule="evenodd" d="M0 41.6598V82.8197H28.7101H57.4203V41.6598V0.5H28.7101H0V41.6598ZM155.409 9.34494C146.816 13.6936 145.314 27.5281 152.619 35.0396C159 41.6013 169.075 37.8901 171.992 27.905C175.567 15.6672 165.399 4.28875 155.409 9.34494ZM8.2029 42V75.3361H29.0519H49.901V42V8.66393H29.0519H8.2029V42ZM74.5097 23.2481V37.918H76.9022H79.2947V27.9288V17.9402L85.9698 27.7587C91.5368 35.9492 92.9546 37.6132 94.5145 37.7929L96.3841 38.0085V23.3359V8.66393H94.3333H92.2826V18.6409V28.6173L85.5767 18.811C79.5244 9.95928 78.659 8.98301 76.6903 8.79116L74.5097 8.57753V23.2481ZM107.26 10.492C106.397 12.7112 97.7512 37.4942 97.7512 37.748C97.7512 37.8418 98.7793 37.918 100.036 37.918C102.233 37.918 102.367 37.7643 103.562 33.8361L104.804 29.7541H109.049H113.293L114.444 33.8361L115.595 37.918H118.294C120.006 37.918 120.987 37.6071 120.977 37.0676C120.969 36.6002 119.012 30.0943 116.63 22.6107L112.299 9.0041L110.151 8.79116C108.338 8.61087 107.889 8.87484 107.26 10.492ZM118.258 10.7049C118.258 12.7255 118.297 12.7459 122.018 12.7459H125.778V25.332V37.918H128.512H131.246V25.332V12.7459H135.006C138.727 12.7459 138.766 12.7255 138.766 10.7049V8.66393H128.512H118.258V10.7049ZM140.133 23.291V37.918H142.525H144.918V23.291V8.66393H142.525H140.133V23.291ZM175.679 23.291V37.918H177.711H179.744L179.933 27.8832L180.122 17.8484L181.797 20.5697C182.719 22.0664 185.763 26.5817 188.561 30.6045C193.019 37.0132 193.89 37.918 195.601 37.918H197.553V23.291V8.66393H195.179H192.806L192.616 18.2933L192.426 27.9227L188.384 21.865C181.047 10.8696 179.206 8.66393 177.366 8.66393H175.679V23.291ZM207.832 10.875C204.392 20.4806 198.92 36.6941 198.92 37.2812C198.92 37.6833 199.871 37.9099 201.063 37.7908C203.014 37.5969 203.305 37.2445 204.331 33.8361L205.457 30.0943L209.696 29.8922L213.935 29.6895L215.085 33.8041L216.234 37.918H219.271C221.512 37.918 222.217 37.682 221.96 37.0166C221.769 36.5206 219.66 29.9398 217.273 22.3923L212.934 8.67006L210.779 8.66666C208.965 8.66461 208.499 9.01362 207.832 10.875ZM223.529 23.291V37.918H231.048H238.568V35.8771V33.8361H233.441H228.314V21.25V8.66393H225.921H223.529V23.291ZM156.987 13.5167C155.025 14.6515 153.804 18.4042 153.804 23.3032C153.804 30.0242 156.137 33.7925 160.298 33.7925C164.51 33.7925 166.85 29.9426 166.872 22.9794C166.889 17.9599 165.69 14.6597 163.412 13.4466C161.725 12.5479 158.603 12.5819 156.987 13.5167ZM208.607 20.6241C207.759 23.493 207.2 25.9749 207.364 26.1395C207.529 26.3035 208.871 26.3423 210.346 26.2252L213.027 26.0123L211.588 20.7098L210.149 15.408L208.607 20.6241ZM107.608 21.2888L106.187 26.3525H109.146C110.837 26.3525 112.106 26.0327 112.106 25.6068C112.106 24.468 109.963 17.2313 109.467 16.6966C109.227 16.4367 108.39 18.5035 107.608 21.2888ZM81.0036 46.2228C71.6639 49.4714 68.3582 61.0825 74.2198 70.0499C77.3526 74.8435 84.6088 76.8396 91.1219 74.7L93.6498 73.87V67.7994V61.7295H90.9469H88.2434L88.0417 66.3217L87.8394 70.9139L85.4106 71.1174C80.7049 71.5106 77.0232 66.7925 77.0232 60.3689C77.0232 55.8821 78.551 52.6226 81.3229 51.196C83.6231 50.0122 87.6698 49.8435 89.5647 50.8531C90.5962 51.4028 91.0125 51.2538 91.623 50.1197C92.7324 48.0563 92.0208 46.9426 89.0732 46.1282C85.9124 45.2547 83.7119 45.2805 81.0036 46.2228ZM122.018 46.5323C118.728 48.2583 117.103 50.0646 115.498 53.7772C112.447 60.8349 114.938 70.4615 120.74 74.0298C124.936 76.611 131.553 75.7313 134.799 72.1617C138.672 67.9028 139.98 58.6225 137.47 53.2254C134.402 46.631 127.515 43.6478 122.018 46.5323ZM148.55 47.0576C138.349 51.7852 137.519 68.0586 147.199 73.5652C150.876 75.6572 153.933 76.0688 158.589 75.0986L162.349 74.3156L162.546 68.0225L162.742 61.7295H160.013H157.284L157.083 66.3217L156.88 70.9139L154.61 71.131C149.859 71.5847 146.292 67.1612 146.288 60.8117C146.284 56.0338 147.798 52.5165 150.445 51.1545C152.674 50.0068 156.736 49.8571 158.606 50.8531C159.637 51.4028 160.054 51.2538 160.664 50.1197C161.773 48.0563 161.062 46.9426 158.114 46.1282C154.264 45.0642 152.478 45.2377 148.55 47.0576ZM271.815 46.3983C262.189 49.8136 259.189 63.8671 266.46 71.4847C269.844 75.0313 274.58 76.5076 278.82 75.3374C282.754 74.2523 283.198 73.791 282.264 71.7521C281.573 70.2431 281.222 70.0826 279.793 70.6234C273.473 73.0148 267.961 68.2532 267.961 60.4022C267.961 52.7329 273.399 48.3754 279.9 50.8354C281.465 51.4273 281.752 51.3014 282.337 49.77C282.701 48.8155 283 47.9345 283 47.812C283 47.3072 277.388 45.4037 275.98 45.4316C275.141 45.4479 273.267 45.8826 271.815 46.3983ZM97.7512 60.709V75.3361H105.271H112.79V73.2951V71.2541H108.005H103.22V66.4918V61.7295H107.321H111.423V59.6885V57.6475H107.321H103.22V53.9057V50.1639H107.321H111.423V48.123V46.082H104.587H97.7512V60.709ZM167.476 60.6417V75.3361H169.868H172.261V69.8438C172.261 65.0454 172.407 64.3794 173.42 64.5733C174.12 64.7073 175.456 66.8156 176.792 69.8955L179.004 74.9959L184.16 75.1946L189.316 75.3925L190.529 71.2834L191.743 67.1742L195.98 67.1728L200.217 67.1721L201.367 71.2541L202.519 75.3361H205.468H208.417L207.431 72.1045C206.889 70.3275 204.816 63.8215 202.825 57.6475L199.205 46.4221H196.895H194.586L189.717 60.5185L184.85 74.6149L182.05 68.9968L179.25 63.3779L181.566 60.8628C183.611 58.6422 183.882 57.9101 183.882 54.6065C183.882 51.4348 183.578 50.5279 181.888 48.6441C179.953 46.4888 179.706 46.4146 173.685 46.1847L167.476 45.9466V60.6417ZM209.857 60.6417V75.3361H212.25H214.643V69.8934V64.4508H216.721C220.424 64.4508 224.174 61.9894 225.7 58.5551C227.408 54.7133 226.954 51.6355 224.232 48.6033C222.342 46.497 222.063 46.414 216.066 46.1847L209.857 45.9466V60.6417ZM228.998 60.709V75.3361H231.732H234.466V68.1926V61.0492H239.227H243.988L244.183 68.0225L244.378 74.9959L246.941 75.2068L249.505 75.4184V60.7498V46.082H246.771H244.036V51.5246V56.9672H239.251H234.466V51.5246V46.082H231.732H228.998V60.709ZM254.29 60.709V75.3361H256.682H259.075V60.709V46.082H256.682H254.29V60.709ZM122.143 52.1811C117.874 57.2312 119.653 69.7009 124.827 70.9935C129.415 72.1392 132.585 68.794 133.113 62.25C133.728 54.6262 131.247 50.1639 126.393 50.1639C124.411 50.1639 123.471 50.6102 122.143 52.1811ZM172.261 55.2664C172.261 60.1926 172.318 60.3689 173.894 60.3689C176.76 60.3689 178.724 58.1591 178.724 54.933C178.724 51.6681 177.291 50.1639 174.181 50.1639H172.261V55.2664ZM214.643 55.2664C214.643 60.2797 214.673 60.3689 216.382 60.3689C217.339 60.3689 218.877 59.6171 219.8 58.6986C223.069 55.446 221.146 50.1639 216.693 50.1639H214.643V55.2664ZM195.98 54.2459C194.671 57.9496 193.452 62.1078 193.452 62.8711C193.452 63.4671 194.375 63.7705 196.186 63.7705C197.919 63.7705 198.92 63.4589 198.918 62.9201C198.911 60.9818 196.312 53.3064 195.98 54.2459Z" fill="white"/>
</g>
<defs>
<clipPath id="clip0_32_10">
<rect width="283" height="83" fill="white" transform="translate(0 0.5)"/>
</clipPath>
</defs>
</svg>
