<svg width="154" height="154" viewBox="0 0 154 154" fill="none" xmlns="http://www.w3.org/2000/svg">
<path fill-rule="evenodd" clip-rule="evenodd" d="M67.452 0.662185C48.4681 3.27279 30.4563 13.0259 18.5927 27.1194C15.3242 31.0026 14.8129 31.9772 14.2025 35.4822C11.635 50.2268 13.5612 62.7556 20.3729 75.614C22.0337 78.7476 23.2706 81.312 23.1228 81.312C22.9749 81.312 21.6191 79.5798 20.1093 77.462C13.329 67.9522 9.87692 57.482 9.82641 46.2751L9.79684 39.732L8.04864 43.12C7.08644 44.9834 5.41339 49.0028 4.32923 52.052C2.17446 58.1147 2.13504 60.4505 4.06127 68.068C5.41708 73.4327 10.5059 83.484 14.1205 87.9371C15.8404 90.0561 17.248 91.9879 17.248 92.23C17.248 93.2648 9.54675 84.9729 7.10862 81.312C4.40007 77.2458 1.28249 70.5443 1.17038 68.5485C1.12849 67.7939 0.955396 67.9318 0.61598 68.992C0.34494 69.839 0.0954597 73.3631 0.0615797 76.8232C0.0129157 81.7789 0.263012 83.7815 1.23876 86.2579C3.02762 90.7959 6.38667 95.7917 10.7054 100.335C14.0004 103.803 14.2086 104.154 12.3563 103.125C11.1902 102.478 8.35417 100.118 6.05341 97.8811C1.3829 93.3406 1.39584 93.3166 4.11917 101.64C7.73448 112.69 13.7282 122.206 22.7606 131.239C29.6604 138.139 34.7683 141.862 42.8945 145.917C71.5096 160.194 106.071 155.037 129.659 132.973C139.639 123.637 147.349 110.889 150.85 97.9335L152.095 93.324L150.485 95.3512C149.005 97.2146 142.627 102.581 140.448 103.797C139.94 104.081 141.095 102.647 143.016 100.611C147.203 96.1711 151.187 90.1614 152.624 86.1149C153.201 84.4899 153.885 83.16 154.145 83.16C154.404 83.16 154.612 80.0418 154.607 76.23C154.6 71.5281 154.405 69.5969 154 70.224C153.539 70.9379 153.391 70.7279 153.348 69.3C153.3 67.6614 153.169 67.8019 152.194 70.5394C150.789 74.4855 148.787 78.4211 146.402 81.928C144.231 85.1207 138.053 91.784 137.264 91.784C136.971 91.784 138.086 90.0512 139.741 87.934C145.476 80.6005 149.447 71.7227 150.905 62.9767C151.587 58.8803 151.536 58.1245 150.299 54.0447C149.556 51.5937 147.936 47.3704 146.7 44.66L144.452 39.732L144.079 47.432C143.874 51.667 143.235 56.9338 142.659 59.136C141.204 64.7034 136.086 74.9124 133.086 78.232L130.582 81.004L132.724 77.3061C135.654 72.25 137.779 66.8409 139.335 60.4832C141.586 51.2808 140.994 36.076 138.17 30.577C137.672 29.6068 134.586 26.1252 131.31 22.8394C120.222 11.7151 107.231 4.76906 91.476 1.54306C85.4435 0.307369 73.2763 -0.138615 67.452 0.662185ZM68.2244 2.82126C52.7943 5.61174 38.4901 16.7657 32.0073 31.0636C26.435 43.3535 26.2835 59.5204 31.6273 71.6044C34.9179 79.0457 41.1765 86.8843 47.5798 91.5844C49.3311 92.87 50.674 94.4014 50.9075 95.3796C51.468 97.7241 54.7784 104.971 55.1289 104.62C55.2909 104.459 54.9897 102.128 54.4599 99.4409C51.1649 82.7331 59.8986 64.4736 78.1581 49.896C84.0131 45.2218 86.033 42.0124 84.995 39.0347C83.7279 35.4015 82.4621 35.1225 61.4201 33.8399C50.8465 33.195 41.2258 32.6412 40.04 32.6092C35.9473 32.4983 39.1807 32.0942 57.288 30.4538L75.46 28.8078L77.616 26.7917C81.0323 23.5971 83.5893 22.5659 88.088 22.5678C93.5956 22.5708 96.0633 24.0037 102.41 30.8831L107.655 36.5676L102.645 39.9106C89.2701 48.8377 80.0898 58.5693 76.3119 67.8253C74.4411 72.4071 74.3684 79.3143 76.1499 83.1914C78.0293 87.2816 80.9251 90.2711 84.8959 92.2214C87.9808 93.7361 89.0908 93.94 94.248 93.94C99.5813 93.94 100.478 93.7613 104.359 91.9232C109.775 89.3582 116.299 82.8421 119.931 76.368C133.815 51.6282 125.124 21.1787 100.365 7.81702C90.5027 2.49478 79.4942 0.783537 68.2244 2.82126ZM0.232828 77C0.232828 80.8962 0.333236 82.4898 0.455204 80.542C0.577172 78.5936 0.577172 75.4058 0.455204 73.458C0.333236 71.5096 0.232828 73.1038 0.232828 77ZM57.9563 112.266C57.6631 113.029 56.3942 116.333 55.1369 119.61C52.2947 127.014 51.1951 128.127 46.2776 128.573C42.6783 128.899 42.5194 128.987 41.8467 131.025C41.4629 132.187 41.3151 133.304 41.5178 133.507C41.7204 133.71 44.4505 133.899 47.5848 133.928C54.1636 133.988 57.9163 132.856 60.6692 129.983C62.423 128.152 69.1749 112.29 68.5977 111.356C68.4357 111.094 66.0949 110.88 63.3962 110.88C58.8766 110.88 58.4473 110.989 57.9563 112.266ZM75.6325 118.079C72.4884 121.699 68.3267 126.481 66.3845 128.705C64.4422 130.928 62.8486 132.956 62.8425 133.21C62.8369 133.464 64.6227 133.672 66.8113 133.672C70.6632 133.672 70.8634 133.593 73.0699 131.208C75.2955 128.803 75.4495 128.744 79.4972 128.744C83.9177 128.744 84.392 129.077 84.392 132.182C84.392 133.641 84.501 133.672 89.628 133.672C95.7701 133.672 95.2638 135.008 93.9455 122.276C93.4546 117.533 93.0443 113.167 93.0345 112.574C93.0184 111.625 92.3205 111.496 87.1825 111.496H81.3496L75.6325 118.079ZM105.392 112.882C105.101 113.645 103.306 118.309 101.403 123.247C99.5006 128.187 97.944 132.552 97.944 132.949C97.944 133.477 101.115 133.672 109.679 133.672H121.415L122.307 131.536C122.798 130.361 123.2 129.252 123.2 129.072C123.2 128.891 120.289 128.744 116.732 128.744C113.175 128.744 110.264 128.602 110.264 128.429C110.264 128.256 111.65 124.49 113.344 120.06C115.038 115.63 116.424 111.891 116.424 111.75C116.424 111.611 114.061 111.496 111.173 111.496C106.294 111.496 105.884 111.595 105.392 112.882ZM81.1112 121.098L78.7543 124.124L81.0188 124.319C82.2643 124.426 83.4107 124.386 83.5665 124.231C83.7218 124.075 83.763 122.626 83.6583 121.011L83.468 118.073L81.1112 121.098Z" fill="white"/>
</svg>
