<svg width="309" height="154" viewBox="0 0 309 154" fill="none" xmlns="http://www.w3.org/2000/svg">
<path fill-rule="evenodd" clip-rule="evenodd" d="M147.016 0.764808C133.671 2.0024 120.423 7.12107 109.538 15.2452C98.1814 23.7222 89.3787 35.2093 84.1612 48.3613C83.5466 49.9107 83.0438 51.2953 83.0438 51.4383C83.0438 51.5812 83.5596 51.8897 84.1904 52.1238C84.8212 52.358 86.4099 52.9728 87.721 53.4901C89.0321 54.0073 90.2046 54.3971 90.3267 54.3561C90.4487 54.3153 90.9807 53.2011 91.5089 51.8802C93.8368 46.0602 97.8415 39.2213 101.833 34.2513C104.23 31.2658 108.865 26.5994 111.771 24.2445C120.883 16.8622 131.729 11.9655 143.487 9.92684C147.675 9.20056 157.189 9.01692 161.742 9.57439C168.118 10.3553 174.324 11.9798 179.985 14.3503C196.54 21.2835 209.969 35.1921 216.552 52.2241C216.99 53.3597 217.369 54.3184 217.393 54.3549C217.417 54.3913 219.109 53.83 221.153 53.1076C224.296 51.997 224.857 51.7242 224.789 51.3412C224.586 50.2022 222.42 45.0818 220.67 41.6023C209.948 20.2803 189.68 5.3168 166.329 1.4838C160.374 0.506117 152.832 0.225323 147.016 0.764808ZM0.482819 71.1659V94.9749H6.03033H11.5778L11.643 89.8132L11.7082 84.6516L12.5261 86.109C12.9761 86.9106 14.2254 88.4515 15.3023 89.5332C18.5381 92.7832 22.3308 94.3431 26.9168 94.3101C33.4488 94.2635 38.4734 91.1521 41.6786 85.1694L42.4766 83.68L42.482 89.3274L42.4875 94.9749H47.7984H53.1094V84.6069C53.1094 74.7351 53.1326 74.1907 53.5922 73.2352C54.8987 70.5198 59.0782 70.4483 60.4114 73.1186C60.7938 73.8844 60.8337 74.9525 60.8339 84.4694L60.8344 94.9749H66.1405H71.4468L71.5118 89.7039L71.577 84.4327L72.747 86.4597C74.8287 90.0656 77.9257 92.6394 81.8746 94.0453C83.4715 94.614 84.1957 94.732 86.0891 94.732C91.8251 94.732 96.9422 92.4618 99.7858 88.6558C100.756 87.3565 101.849 85.1206 101.606 84.9304C101.554 84.8894 99.5173 84.5549 97.0803 84.1869L92.6493 83.5179L91.1791 84.3064C88.5514 85.7157 85.502 85.5685 83.289 83.9258C82.4103 83.2733 80.8711 81.2342 80.8711 80.7224C80.8711 80.4601 82.9426 80.4008 92.0965 80.4008H103.322V87.6879V94.9749H108.747H114.172L114.239 91.3958L114.306 87.8168L115.091 89.3918C116.407 92.0346 118.269 93.6773 120.859 94.4823C123.855 95.4134 126.932 94.8816 129.371 93.0111L130.676 92.0105L130.52 93.7964C130.243 96.9798 129.599 98.3967 127.916 99.5169C127.094 100.064 126.571 100.209 125.151 100.281C123.216 100.379 122.023 100.089 120.619 99.1808C119.729 98.6051 119.676 98.5985 119.371 99.0241C119.196 99.2685 117.75 101.163 116.158 103.234L113.264 106.999L113.906 107.527C115.864 109.139 118.933 110.565 121.746 111.169C125.052 111.879 130.601 111.249 133.641 109.817C137.372 108.06 139.709 105.324 141.13 101.047C141.544 99.8031 141.579 98.3828 141.649 80.3401L141.725 60.9686H136.283H130.842V71.5426C130.842 83.1587 130.812 83.4278 129.425 84.1497C128.177 84.799 127.048 84.6472 126.111 83.7043L125.29 82.8784V71.9281V60.9778L119.798 60.9125L114.306 60.8472L114.242 54.1066L114.177 47.3661H108.752H103.326L103.264 59.4391L103.201 71.5118L102.273 69.9145C98.8935 64.0999 93.6301 60.9686 87.236 60.9686C84.5368 60.9686 82.5257 61.4663 79.6802 62.839C77.7847 63.7535 77.076 64.2687 75.4498 65.9143C74.11 67.2705 73.2067 68.4502 72.5744 69.6703L71.6525 71.4496L70.5534 69.1845C67.988 63.8978 63.1891 60.9686 57.0926 60.9686C51.069 60.9686 46.1716 63.8198 43.7163 68.7563C43.1731 69.8479 42.7289 70.8921 42.7289 71.0772C42.7289 71.771 42.3381 71.35 41.4012 69.647C40.7899 68.5365 39.6824 67.1242 38.3836 65.8004C36.7237 64.1084 35.9396 63.5157 34.2797 62.6986C29.0125 60.1058 22.9539 60.4182 17.8211 63.5475C16.1023 64.5954 13.3341 67.5532 12.4102 69.3293L11.7082 70.6789L11.5875 59.0832L11.4668 47.4875L5.97481 47.4222L0.482819 47.3569V71.1659ZM187.756 59.0827L187.693 70.7991L186.533 68.9258C181.048 60.0706 169.834 58.1621 161.914 64.736C159.473 66.7616 157.594 69.6589 156.403 73.2352L155.836 74.9355L155.76 91.3921L155.685 107.849H161.113C164.099 107.849 166.588 107.767 166.644 107.667C166.7 107.566 166.663 104.315 166.56 100.44C166.457 96.5659 166.406 93.3623 166.446 93.321C166.486 93.2797 167.155 93.4376 167.933 93.6717C169.842 94.2467 174.301 94.2445 176.468 93.6674C180.509 92.5913 184.64 89.729 186.766 86.5319L187.693 85.1374L187.759 90.0561L187.824 94.9749H193.251H198.677V90.1169C198.677 87.4449 198.759 85.2591 198.858 85.2593C198.958 85.2598 199.339 85.836 199.704 86.5399C201.222 89.4627 203.819 91.9595 206.971 93.5253C209.52 94.792 211.838 95.2868 214.724 95.1806L217.019 95.0964L218.098 94.0033C218.691 93.4021 219.761 91.9326 220.475 90.7375C221.188 89.5424 221.899 88.5222 222.054 88.4705C222.259 88.4015 222.335 89.3007 222.335 91.797V95.2178H230.633C235.198 95.2178 239.271 95.1496 239.686 95.066L240.441 94.9142L240.441 84.439C240.441 72.7396 240.426 72.8558 242.13 71.7005C242.839 71.2205 243.211 71.1426 244.43 71.2179C246.083 71.3204 246.979 71.8397 247.554 73.0289C247.869 73.6809 247.924 75.3642 247.924 84.3846V94.9749H253.351H258.778L258.843 89.6918L258.908 84.4087L259.871 86.2304C261.819 89.9143 265.913 93.2263 269.829 94.286C272.415 94.9856 277.15 95.16 279.367 94.6373C283.364 93.6953 286.37 91.1871 288.371 87.1255C289.229 85.3834 289.465 84.6921 289.249 84.5576C289.086 84.4563 286.994 84.0662 284.599 83.6904L280.246 83.0074L279.595 83.6331C278.456 84.7291 276.966 85.2477 274.94 85.2535C271.989 85.262 269.727 83.9027 268.427 81.3398L267.951 80.4008H279.148H290.344L290.497 81.676C290.58 82.3773 290.65 83.5022 290.651 84.1755C290.654 85.6484 291.207 87.8929 291.933 89.3751C292.717 90.978 294.959 93.1719 296.569 93.9134C299.892 95.4442 305.826 94.5685 307.996 92.2272L308.561 91.6173L308.387 86.7702L308.212 81.9228L307.218 82.4948C305.314 83.5906 302.743 83.0538 301.883 81.3814C301.149 79.9534 300.832 75.8571 301.189 72.4207L301.344 70.9276H304.689H308.034V65.9481V60.9686H304.655H301.275V57.568V54.1673H295.843H290.412L290.407 62.7296L290.403 71.2919L289.706 70.0196C286.572 64.3003 280.973 60.9584 274.549 60.9727C268.384 60.9866 262.677 64.4737 259.737 70.0235C259.319 70.8125 258.896 71.366 258.798 71.2536C258.699 71.1411 258.439 70.581 258.219 70.0089C256.611 65.824 252.668 62.3757 248.259 61.3002C245.651 60.664 241.993 60.7687 239.577 61.5484C235.787 62.7717 232.616 65.5728 230.764 69.3329L229.748 71.3976L228.708 69.561C226.747 66.0989 224.653 64.1314 221.205 62.5123C218.513 61.2479 216.651 60.8969 213.403 61.042C210.279 61.1814 208.475 61.6762 205.92 63.0933C203.978 64.1703 200.948 67.1636 199.895 69.0451C199.466 69.8132 199.016 70.503 198.896 70.5776C198.767 70.6577 198.677 65.9391 198.677 59.0397V47.3661H193.248H187.819L187.756 59.0827ZM24.1418 70.8654C23.4584 71.1081 22.5488 71.7617 21.6848 72.6311C20.0406 74.2855 19.4161 75.9724 19.6181 78.2149C20.0111 82.5743 24.3031 85.6021 28.4022 84.4111C33.9096 82.8111 35.5251 75.9685 31.2826 72.2111C29.3893 70.5341 26.5709 70.0031 24.1418 70.8654ZM272.158 70.8346C270.45 71.444 268.588 73.3498 268.093 74.9962L267.928 75.5427H274.704C278.431 75.5427 281.48 75.456 281.48 75.3499C281.48 75.2437 281.126 74.5604 280.694 73.8317C279.844 72.3991 278.209 71.1158 276.694 70.6927C275.458 70.3471 273.339 70.4134 272.158 70.8346ZM85.8726 70.9383C83.9843 71.4095 82.4057 72.5771 81.3134 74.3102C80.0163 76.3684 79.716 76.2714 87.3891 76.2714C93.7431 76.2714 94.1484 76.2452 94.1484 75.8333C94.1484 75.2717 92.9694 73.4275 92.0685 72.5803C90.608 71.2062 87.7903 70.4598 85.8726 70.9383ZM169.757 71.4275C168.094 72.2636 167.237 73.1625 166.415 74.9355C165.131 77.7014 166.037 81.3326 168.5 83.2916C171.381 85.5829 175.729 85.2122 178.12 82.4715C179.514 80.8747 179.727 80.2448 179.727 77.7289C179.727 75.6503 179.661 75.3088 179.065 74.2879C177.11 70.9427 173.145 69.724 169.757 71.4275ZM211.686 71.0199C208.839 72.0435 207.007 74.7297 207.028 77.8503C207.041 79.8543 207.73 81.4348 209.218 82.8772C211.356 84.9491 214.491 85.4009 217.218 84.0297C222.505 81.3714 222.343 73.8033 216.945 71.2742C215.517 70.6053 213.156 70.4911 211.686 71.0199ZM86.6648 102.079C84.7396 102.757 83.1263 103.341 83.0795 103.378C82.9134 103.509 83.8559 106.075 85.2575 109.306C88.9399 117.797 94.2824 125.497 101.191 132.27C113.076 143.923 127.087 150.751 144.12 153.193C148.832 153.868 159.919 153.798 164.639 153.062C178.685 150.874 190.404 145.715 201.574 136.803C204.53 134.445 210.331 128.583 212.858 125.402C215.71 121.811 218.753 117.07 220.91 112.857C222.69 109.379 225.107 103.756 224.908 103.555C224.767 103.414 217.824 100.804 217.591 100.806C217.479 100.806 217.016 101.762 216.565 102.931C215.22 106.407 212.577 111.383 210.147 115.012C199.236 131.308 182.661 141.757 163.07 144.69C159.013 145.298 148.842 145.296 144.723 144.688C139.174 143.867 132.98 142.199 127.964 140.172C125.959 139.362 120.809 136.729 118.651 135.412C106.547 128.021 96.7465 116.43 91.4925 103.293C90.9732 101.995 90.4622 100.914 90.3569 100.89C90.2514 100.867 88.5901 101.402 86.6648 102.079Z" fill="white"/>
</svg>
