<svg width="290" height="84" viewBox="0 0 290 84" fill="none" xmlns="http://www.w3.org/2000/svg">
<path fill-rule="evenodd" clip-rule="evenodd" d="M0 41.9433V83.3866H41.4043H82.8086V41.9433V0.5H41.4043H0V41.9433ZM103.539 41.9433V83.3866H145H186.461V41.9433V0.5H145H103.539V41.9433ZM207.191 41.9433V83.3866H248.596H290V41.9433V0.5H248.596H207.191V41.9433ZM249.049 18.2567C248.862 18.2824 248.123 18.3838 247.406 18.482C239.803 19.5237 233.704 23.8684 230.58 30.4683C229.531 32.6853 228.671 35.8341 228.379 38.5329C228.223 39.9636 228.221 44.0337 228.375 45.419C229.322 53.9598 233.084 59.9031 239.629 63.2019C244.239 65.5253 250.269 66.3209 256.383 65.4126C259.082 65.0115 262.582 63.9619 264.646 62.9348L265.814 62.3531L265.844 57.8954L265.874 53.4376L265.164 53.8509C261.121 56.2065 256.672 57.3338 252.107 57.1588C250.022 57.0789 248.749 56.8614 247.111 56.3049C242.116 54.6079 239.194 50.5426 238.563 44.4094C238.394 42.7726 238.485 39.4968 238.737 38.1151C239.483 34.0277 241.377 30.9825 244.4 29.0104C248.334 26.4433 254.488 25.9855 260.143 27.8392C261.595 28.3152 263.41 29.1381 264.405 29.7717C264.744 29.9873 265.085 30.2022 265.163 30.2492C265.275 30.3168 265.305 29.3943 265.305 25.7845V21.2345L264.249 20.741C262.215 19.7892 259.657 19.0198 256.845 18.5133C255.738 18.3138 254.975 18.2665 252.447 18.2409C250.765 18.2238 249.236 18.2309 249.049 18.2567ZM23.2227 41.9421V64.8014L34.2959 64.7606C44.1343 64.7244 45.4954 64.6981 46.502 64.5249C50.9487 63.759 53.8618 62.4594 56.1695 60.2119C57.7938 58.6301 58.8308 56.8267 59.3848 54.6209C59.5991 53.7676 59.6346 53.3252 59.6294 51.5813C59.6239 49.7509 59.5927 49.426 59.3274 48.4327C58.3549 44.7922 55.499 41.8151 51.7579 40.5423L51.1655 40.3407L51.9282 39.921C52.9554 39.356 53.7342 38.7652 54.5209 37.9542C56.2624 36.1594 57.0476 34.1828 57.1706 31.2848C57.3971 25.9395 54.602 22.1187 49.1224 20.2834C47.8775 19.8664 46.9196 19.6427 45.1426 19.3538C44.172 19.1961 42.5217 19.1634 33.6162 19.1262L23.2227 19.0827V41.9421ZM126.762 41.9373V64.791H137.107C147.984 64.791 148.872 64.7586 151.344 64.2703C157.553 63.0439 161.571 59.7598 162.915 54.8128C163.146 53.9599 163.176 53.5947 163.176 51.638C163.176 49.6925 163.145 49.3111 162.918 48.4631C161.956 44.8782 159.316 42.066 155.563 40.6282C155.174 40.4791 154.855 40.3247 154.855 40.2851C154.855 40.2457 155.016 40.1466 155.213 40.065C155.886 39.786 157.214 38.8429 157.945 38.1252C159.132 36.9592 159.998 35.4338 160.475 33.666C160.803 32.4528 160.774 29.036 160.426 27.7698C159.742 25.2833 158.317 23.3492 156.106 21.9035C154.09 20.5861 151.83 19.8197 148.455 19.309C147.815 19.2122 144.501 19.159 137.155 19.1278L126.762 19.0836V41.9373ZM32.8232 26.5284C32.7765 26.5772 32.7383 29.1597 32.7383 32.2676V37.918H36.6777C41.8224 37.918 43.0248 37.768 44.6648 36.9219C46.9043 35.7663 47.9781 33.3063 47.4115 30.6295C47.0891 29.1069 46.2884 28.1177 44.8093 27.4146C43.244 26.6705 42.4219 26.5694 37.3828 26.5008C34.9218 26.4672 32.87 26.4797 32.8232 26.5284ZM136.335 26.5925C136.302 26.6787 136.288 29.2495 136.305 32.3053L136.334 37.8613L140.865 37.8569C145.169 37.8527 145.447 37.8398 146.407 37.5993C149.502 36.824 151.117 34.8881 151.117 31.9553C151.117 29.0657 149.548 27.3832 146.246 26.7338C145.001 26.4889 136.422 26.3665 136.335 26.5925ZM32.7383 51.2411V57.4208L37.2979 57.4188C43.3794 57.4162 44.8915 57.2372 46.8519 56.2881C48.945 55.2748 50.0992 53.2093 49.9087 50.8181C49.7245 48.5069 48.7188 47.0081 46.7285 46.0791C44.8429 45.1991 43.5987 45.0615 37.5274 45.0615H32.7383V51.2411ZM136.305 51.2128L136.334 57.3641L140.639 57.399C146.766 57.4485 148.397 57.2612 150.415 56.2757C152.456 55.2793 153.5 53.5575 153.494 51.1974C153.488 48.3477 151.784 46.2803 148.816 45.5205C147.348 45.1446 145.939 45.0615 141.039 45.0615H136.275L136.305 51.2128Z" fill="white"/>
</svg>
